<?xml version="1.0" standalone="no"?>
<!DOCTYPE svg PUBLIC "-//W3C//DTD SVG 1.1//EN" "http://www.w3.org/Graphics/SVG/1.1/DTD/svg11.dtd" >
<svg xmlns="http://www.w3.org/2000/svg">
<metadata></metadata>
<defs>
<font id="helvetica_lt_std_lightitalic" horiz-adv-x="1138" >
<font-face units-per-em="2048" ascent="1470" descent="-578" />
<missing-glyph horiz-adv-x="569" />
<glyph horiz-adv-x="2048" />
<glyph horiz-adv-x="2048" />
<glyph unicode="&#xd;" horiz-adv-x="2048" />
<glyph unicode=" "  horiz-adv-x="569" />
<glyph unicode="&#x09;" horiz-adv-x="569" />
<glyph unicode="&#xa0;" horiz-adv-x="569" />
<glyph unicode="!" horiz-adv-x="681" d="M266 0l39 180h150l-39 -180h-150zM373 371l108 645l99 459h149l-98 -459l-166 -645h-92z" />
<glyph unicode="&#x22;" horiz-adv-x="569" d="M332 1012l98 463h107l-99 -463h-106zM559 1012l98 463h107l-98 -463h-107z" />
<glyph unicode="#" d="M154 467l26 121h244l104 286h-229l25 121h245l158 435h123l-158 -435h279l155 435h121l-155 -435h204l-24 -121h-221l-103 -286h209l-27 -121h-227l-164 -467h-121l162 467h-280l-168 -467h-121l168 467h-225zM545 588h282l103 286h-279z" />
<glyph unicode="$" d="M154 315q0 19 10 101h133q-30 -139 37.5 -238t202.5 -106l131 608q-44 11 -78.5 22t-71 26t-63 32t-51.5 39t-40 49.5t-24.5 60.5t-8.5 73.5t11 88.5q36 167 178 272.5t311 100.5l27 125h94l-26 -125q172 2 261.5 -94.5t59.5 -266.5h-133q23 111 -39 180.5t-174 69.5 l-115 -545q61 -15 103.5 -28t88 -33t74 -42.5t53.5 -55t35 -72t9.5 -93t-14.5 -118.5q-24 -115 -110 -204t-194.5 -133.5t-220.5 -47.5l-32 -156h-95l33 156q-174 9 -268 98t-94 256zM467 1015.5q-1 -28.5 6 -51t16.5 -40.5t27 -33.5t34.5 -26.5t43 -22t47.5 -18.5 t52.5 -16.5l111 526q-117 0 -211.5 -71.5t-118.5 -184.5q-7 -33 -8 -61.5zM633 72q129 0 238.5 85t136.5 212q8 37 8.5 69t-6.5 57t-18 45t-30 36t-39.5 28t-49 22.5t-54.5 17.5t-61 15z" />
<glyph unicode="%" horiz-adv-x="1820" d="M369 1090q29 139 149.5 239.5t259.5 100.5q140 0 219 -100.5t50 -239.5t-150.5 -238.5t-261.5 -99.5q-139 0 -217 100t-49 238zM442 -29l1127 1473h106l-1126 -1473h-107zM485 1090q-19 -91 33 -156.5t141 -65.5t170.5 66.5t100.5 155.5q19 90 -33.5 156.5t-142.5 66.5 t-169.5 -66t-99.5 -157zM1079 340q29 138 151.5 238t260.5 100q139 0 215 -99.5t47 -238.5q-29 -140 -147 -240t-258 -100t-219 100.5t-50 239.5zM1196 336q-19 -88 33.5 -153.5t140.5 -65.5q89 0 168 66.5t98 156.5q20 89 -31.5 155t-140.5 66q-92 0 -170 -66t-98 -159z " />
<glyph unicode="&#x26;" horiz-adv-x="1366" d="M166.5 219q-19.5 81 1.5 180q17 80 60.5 151.5t105.5 127.5t132 99.5t152 78.5q-55 83 -80.5 162.5t-7.5 167.5q28 134 140.5 211.5t253.5 77.5q134 0 204 -83t43 -202q-10 -48 -28 -88.5t-48 -75.5t-56.5 -60t-73 -54.5t-76.5 -46t-86 -46.5l278 -438q85 108 121 287 h121q-64 -245 -184 -385l180 -283h-166l-106 174q-118 -114 -239 -163.5t-271 -49.5q-95 0 -173 31.5t-128 88.5t-69.5 138zM305 389q-30 -144 45 -230.5t219 -86.5q212 0 418 196l-313 500q-139 -59 -241.5 -161t-127.5 -218zM655 1188q-20 -97 97 -277q51 27 73.5 40 t64 39.5t70 54.5t50.5 61q27 41 33 87t-7.5 83.5t-51.5 62.5t-93 25q-80 0 -149 -48.5t-87 -127.5z" />
<glyph unicode="'" horiz-adv-x="454" d="M389 1012l98 463h107l-98 -463h-107z" />
<glyph unicode="(" horiz-adv-x="681" d="M197.5 297q4.5 125 35.5 268q57 269 191 491.5t360 456.5h105q-196 -218 -329.5 -462t-186.5 -496q-103 -474 110 -946h-104q-63 125 -101.5 228t-61.5 219t-18.5 241z" />
<glyph unicode=")" horiz-adv-x="681" d="M31 -391q196 217 330 461t188 497q101 479 -113 946h105q64 -124 102.5 -227.5t61 -219.5t18 -240.5t-34.5 -268.5q-57 -268 -191.5 -490.5t-361.5 -457.5h-104z" />
<glyph unicode="*" horiz-adv-x="796" d="M352 1237l56 86l208 -88l52 240h86l-52 -240l252 86l13 -90l-250 -76l106 -217l-90 -49l-104 221l-205 -217l-62 55l203 207z" />
<glyph unicode="+" horiz-adv-x="1351" d="M260 451l27 122h450l94 451h123l-94 -451h451l-27 -122h-450l-97 -451h-123l97 451h-451z" />
<glyph unicode="," horiz-adv-x="569" d="M150 -281l16 76q78 42 98 135l15 70h-70l39 180h149l-51 -241q-20 -86 -72 -142.5t-124 -77.5z" />
<glyph unicode="-" horiz-adv-x="681" d="M182 469l27 127h518l-27 -127h-518z" />
<glyph unicode="." horiz-adv-x="569" d="M209 0l39 180h149l-39 -180h-149z" />
<glyph unicode="/" horiz-adv-x="569" d="M-45 -184l842 1697h114l-841 -1697h-115z" />
<glyph unicode="0" d="M190 342.5q-2 86.5 8 175t33 193.5q18 84 38.5 156t51 148.5t66.5 137.5t85.5 117t108 93t134 59t162.5 22q89 0 156.5 -24.5t108.5 -64.5t65.5 -100t33 -123t5 -141.5t-14 -147t-27.5 -147.5q-26 -123 -59.5 -223.5t-86.5 -196.5t-120.5 -161t-163 -104.5t-211.5 -39.5 q-97 0 -169 26.5t-114 77t-65 116t-25 152zM325.5 489.5q-8.5 -91.5 0.5 -169.5t39 -129.5t86 -80t137 -28.5q90 0 164.5 38.5t124.5 98t91 147t64.5 167.5t44.5 178q18 84 27 154.5t10.5 144t-13 129.5t-43.5 101t-82.5 69t-127.5 24q-354 0 -490 -637 q-24 -115 -32.5 -206.5z" />
<glyph unicode="1" d="M473 1073l19 86q65 4 106 9t90 16t82.5 30t68.5 49t62 75t51 106h105l-307 -1444h-132l228 1073h-373z" />
<glyph unicode="2" d="M98 0q26 113 67 195.5t122 156.5q85 79 187 147.5t183.5 109.5t164.5 87.5t142.5 88.5t105 106t63.5 145q28 137 -45 217t-211 80q-139 0 -252 -107t-138 -255h-139q44 214 200 343.5t370 129.5q141 0 231.5 -54.5t120.5 -143.5t6 -202q-19 -91 -68 -169t-109.5 -131 t-142 -104t-152.5 -84.5t-155 -77t-137 -77.5q-101 -65 -164 -131t-88 -159h805l-23 -111h-944z" />
<glyph unicode="3" d="M158 418h131q-33 -161 46 -248.5t243 -87.5q154 0 279.5 98t146.5 228q16 85 -8 145.5t-81.5 93t-136 44.5t-178.5 5l23 107q97 -1 171.5 11.5t138 42.5t105 85.5t58.5 136.5q28 126 -46 190t-208 64q-137 0 -241.5 -86.5t-133.5 -222.5h-131q44 195 209 324 q73 56 158 76t190 20q117 0 200 -38t122 -120t14 -199q-52 -235 -275 -321q239 -80 183 -356q-40 -185 -190.5 -309t-368.5 -130q-255 0 -352 99.5t-68 347.5z" />
<glyph unicode="4" d="M150 356l24 113l875 961h118l-204 -963h200l-22 -111h-201l-76 -356h-131l76 356h-659zM301 467h530l164 766z" />
<glyph unicode="5" d="M152 375h131q-10 -143 70 -218t225 -75q157 0 273.5 105.5t149.5 263.5q34 163 -41.5 264.5t-238.5 101.5q-200 0 -346 -149l-105 14l275 748h717l-23 -111h-606l-193 -485q94 55 165 74.5t171 19.5q202 0 302.5 -129t54.5 -348q-48 -218 -210 -349t-350 -131 q-106 0 -187 21.5t-140.5 68t-84 126t-9.5 188.5z" />
<glyph unicode="6" d="M193 394.5q0 117.5 32 267.5q16 78 38.5 151.5t56 153t74 147.5t95 129.5t117 105.5t142 69.5t167.5 25.5q174 0 269 -92t78 -262h-136q2 114 -54.5 178.5t-168.5 64.5q-73 0 -137.5 -23.5t-111 -56.5t-89.5 -93t-69.5 -107.5t-56 -126t-43 -123t-36.5 -123.5 q40 43 65 67.5t68.5 58.5t82.5 52.5t94 32.5t116 14q217 0 312 -123.5t49 -341.5q-46 -219 -195 -344t-368 -125q-89 0 -159 22.5t-123.5 74t-81 130.5t-27.5 196.5zM346.5 337q-1.5 -50 15.5 -96t45.5 -81t81 -56.5t121.5 -21.5q88 0 160.5 31.5t121 85t79 115t45.5 130.5 q36 170 -28 260.5t-230 90.5q-148 0 -259 -104t-143 -255q-8 -49 -9.5 -99z" />
<glyph unicode="7" d="M311 0q56 201 193 444t307 462t348 392h-762l27 132h919l-24 -123q-183 -166 -339 -358.5t-259 -367t-169 -320.5t-97 -261h-144z" />
<glyph unicode="8" d="M168.5 244q-12.5 68 5.5 153q28 131 115.5 231.5t218.5 147.5q-41 30 -65 51t-45 48.5t-28.5 57t-7.5 69t11 90.5q21 98 94 180.5t178 129t215 42.5q68 0 127.5 -13t110.5 -39.5t82.5 -68.5t44.5 -99.5t-4 -131.5q-24 -114 -88 -194t-177 -130q110 -43 158.5 -138 t22.5 -220q-45 -209 -206.5 -324t-395.5 -115q-64 0 -123.5 17t-111 51.5t-85.5 85.5t-46.5 119zM305 397q-28 -136 52 -225.5t241 -89.5q144 0 260 90.5t146 233.5q31 146 -50 223.5t-233 77.5q-103 0 -187 -32.5t-145.5 -103.5t-83.5 -174zM500 1073q-26 -126 49 -191 t205 -65q127 0 217 69.5t121 215.5q24 111 -36.5 171t-207.5 60q-127 0 -224 -68.5t-124 -191.5z" />
<glyph unicode="9" d="M176 317h133q-3 -235 232 -235q71 0 134 22.5t110 58t89 90.5t71 108t56 122t43 122t33 118l-4 4q-185 -225 -436 -225q-202 0 -297 127t-51 338q46 214 193 345.5t374 131.5q506 0 350 -729q-76 -357 -262 -550.5t-422 -193.5q-176 0 -271 87.5t-75 258.5zM420 963 q-35 -165 33.5 -258t226.5 -93q149 0 258 103.5t141 255.5q34 162 -31.5 260.5t-216.5 101.5q-163 -3 -269 -100.5t-142 -269.5z" />
<glyph unicode=":" horiz-adv-x="569" d="M209 0l39 180h149l-39 -180h-149zM385 827l39 181h149l-38 -181h-150z" />
<glyph unicode=";" horiz-adv-x="569" d="M150 -281l16 76q78 42 98 135l15 70h-70l39 180h149l-51 -241q-20 -86 -72 -142.5t-124 -77.5zM385 827l39 181h149l-38 -181h-150z" />
<glyph unicode="&#x3c;" horiz-adv-x="1351" d="M264 469l23 109l1120 456l-27 -131l-944 -381l776 -403l-26 -131z" />
<glyph unicode="=" horiz-adv-x="1351" d="M217 254l27 123h1024l-27 -123h-1024zM303 651l25 123h1024l-25 -123h-1024z" />
<glyph unicode="&#x3e;" horiz-adv-x="1351" d="M162 -12l26 131l949 403l-781 381l27 131l928 -456l-23 -109z" />
<glyph unicode="?" horiz-adv-x="1024" d="M303 1057q18 133 96 238t194 161.5t249 56.5q207 0 304 -105t60 -280q-14 -67 -52 -125t-91 -105t-107 -88t-116.5 -93t-104.5 -101q-28 -34 -47.5 -79t-28 -78t-18.5 -86h-119q25 130 64.5 216.5t128.5 164.5q32 28 88.5 72t93.5 75t78.5 71.5t67 82t34.5 84.5 q24 114 -45 189t-217 75t-254 -98t-133 -248h-125zM430 0l39 180h149l-38 -180h-150z" />
<glyph unicode="@" horiz-adv-x="1638" d="M240 743q33 157 125 299.5t217.5 245.5t280.5 164t308 61q146 0 266 -49t197 -133.5t106.5 -205.5t0.5 -259q-34 -156 -137.5 -296.5t-230.5 -221t-236 -80.5q-59 0 -103.5 27.5t-50.5 79.5q-57 -47 -129 -75t-137 -28q-128 0 -187 89t-32 219q18 82 60 169.5 t104.5 167.5t136.5 143.5t163 101.5t177 38q74 0 128.5 -35.5t71.5 -99.5l50 94h137l-338 -618q-21 -39 -32.5 -64.5t-16.5 -51t7 -38t42 -12.5q81 0 175 79t164 194.5t93 223.5q26 125 0 225t-91.5 169.5t-162.5 107t-213 37.5q-139 0 -272.5 -54.5t-237.5 -147 t-179 -217.5t-104 -263q-39 -183 14 -336t185 -241.5t313 -88.5q160 0 321 74t280 205h120q-132 -176 -335.5 -278.5t-407.5 -102.5q-215 0 -371.5 105t-220 284.5t-18.5 392.5zM655 590q-16 -78 15.5 -133.5t105.5 -55.5q66 1 142.5 57.5t138 139t107.5 172.5t61 160 q14 61 -16.5 105t-92.5 44q-77 0 -157 -50t-140.5 -125t-104 -158.5t-59.5 -155.5z" />
<glyph unicode="A" horiz-adv-x="1366" d="M31 0l893 1475h157l252 -1475h-143l-72 463h-672l-272 -463h-143zM518 582h578l-123 774z" />
<glyph unicode="B" horiz-adv-x="1366" d="M166 0l313 1475h533q250 -1 346 -99q70 -71 70 -181q0 -42 -11 -91q-31 -143 -115.5 -222t-187.5 -96l-2 -4q144 -24 200 -120q36 -62 37 -145q0 -47 -12 -101q-89 -416 -569 -416h-602zM330 119h354q99 0 167 6.5t130.5 24.5t102 51t69 86t45.5 129q8 46 10 82v13 q0 29 -10 53q-12 29 -26.5 50.5t-42.5 37.5t-57.5 26t-70.5 16t-82.5 8.5t-93.5 2.5h-370zM479 823h352q107 0 186.5 18.5t132 55.5t83 87.5t45.5 119.5q8 36 8 67q0 86 -60 128q-82 57 -311 57h-321z" />
<glyph unicode="C" horiz-adv-x="1478" d="M226 496q2 113 30 241q43 205 127 357.5t197 242.5t244 133t282 43q231 -1 358 -121q116 -110 116 -307q0 -19 -1 -38h-143q-3 184 -100.5 266t-291.5 82q-129 0 -240 -52.5t-191 -144.5t-135 -207.5t-83 -249.5q-22 -104 -26 -196q-1 -16 -1 -32q0 -75 16 -147 q19 -87 64 -149t128.5 -99.5t199.5 -37.5q184 0 327.5 111t225.5 294h146q-49 -112 -115.5 -203t-157 -165t-212.5 -115t-265 -41q-133 0 -231.5 41t-156.5 112q-57 70 -85 170q-26 93 -26 197v15z" />
<glyph unicode="D" horiz-adv-x="1478" d="M166 0l313 1475h504q148 0 250 -21.5t182 -89.5q58 -50 92 -128q33 -77 41 -165q4 -51 5 -99q-1 -36 -3 -70q-6 -82 -22 -163q-34 -162 -107.5 -309t-189.5 -250q-116 -105 -253.5 -142.5t-307.5 -37.5h-504zM330 119h334q109 0 191.5 13t168.5 54q78 36 142.5 99 t107 141t70 154.5t45.5 158.5q25 120 25 217q0 246 -161 344q-93 56 -325 56h-334z" />
<glyph unicode="E" horiz-adv-x="1251" d="M166 0l313 1475h981l-24 -119h-842l-115 -533h760l-25 -118h-759l-125 -586h862l-25 -119h-1001z" />
<glyph unicode="F" d="M152 0l313 1475h950l-24 -119h-811l-115 -533h737l-24 -118h-738l-149 -705h-139z" />
<glyph unicode="G" horiz-adv-x="1593" d="M258 309q-22 80 -22 179q0 116 30 257q35 165 106.5 303t176 242.5t249 163.5t314.5 59q240 0 379.5 -118.5t138.5 -347.5h-143q-1 108 -53 187.5t-139 120t-197 40.5q-143 0 -261 -51t-204 -145.5t-145 -221.5t-93 -287q-18 -92 -18 -175q0 -7 1 -13q1 -90 31.5 -167.5 t81 -134t130 -88.5t178.5 -32q134 0 268.5 62.5t230.5 195.5q82 111 129 305h-497l24 119h631l-162 -762h-118l53 252q-111 -141 -258 -216t-355 -75q-190 0 -314.5 87t-172.5 261z" />
<glyph unicode="H" horiz-adv-x="1478" d="M164 0l313 1475h139l-135 -633h873l135 633h139l-313 -1475h-139l153 723h-872l-154 -723h-139z" />
<glyph unicode="I" horiz-adv-x="569" d="M215 0l313 1475h140l-314 -1475h-139z" />
<glyph unicode="J" horiz-adv-x="1024" d="M117 252.5q0 53.5 6.5 104t19.5 110.5h140q-11 -47 -16.5 -79.5t-9.5 -75.5q-2 -20 -2 -37q0 -20 3 -35q4 -29 17 -60t37 -49.5t63.5 -30.5t93.5 -12q139 0 217 80t111 240l227 1067h139l-227 -1072q-95 -442 -510 -442q-70 0 -123 14.5t-88 39.5t-57 63t-31.5 79.5 t-9.5 95z" />
<glyph unicode="K" horiz-adv-x="1366" d="M174 0l313 1475h140l-162 -764l917 764h158l-706 -588l495 -887h-170l-444 801l-281 -232l-121 -569h-139z" />
<glyph unicode="L" d="M166 0l313 1475h139l-288 -1356h790l-24 -119h-930z" />
<glyph unicode="M" horiz-adv-x="1705" d="M160 0l313 1475h213l207 -1301h4l752 1301h211l-314 -1475h-139l279 1315h-5l-761 -1315h-132l-206 1315h-4l-279 -1315h-139z" />
<glyph unicode="N" horiz-adv-x="1478" d="M162 0l313 1475h158l577 -1289h4l275 1289h139l-313 -1475h-162l-575 1286h-5l-272 -1286h-139z" />
<glyph unicode="O" horiz-adv-x="1593" d="M240 530q1 98 24 205q34 162 109 303t182 247t250.5 167t304.5 61q113 0 205.5 -27.5t157 -78t108.5 -121.5q43 -72 63 -158q18 -80 19 -171q-1 -7 -1 -14q-2 -99 -24 -208q-34 -161 -108 -300t-180.5 -245.5t-252 -167.5t-311.5 -61q-112 0 -203 28t-155 78.5 t-107.5 121.5t-62.5 157q-18 82 -18 174v10zM380 529q0 -93 24 -175q26 -84 76.5 -144t135.5 -95t197 -35t211.5 35t175.5 96t136.5 145t100.5 179t62 200q25 115 25 212q0 161 -69 271q-110 176 -365 177q-110 0 -209.5 -36t-175.5 -98t-137 -146.5t-101.5 -179.5 t-63.5 -200q-23 -110 -23 -206z" />
<glyph unicode="P" horiz-adv-x="1251" d="M160 0l313 1475h539q112 0 192.5 -21.5t124.5 -59.5t68 -90q22 -48 22 -104v-10q-2 -60 -14 -127q-20 -95 -69 -169t-111.5 -119t-144.5 -73.5t-160.5 -39.5t-165.5 -11h-316l-139 -651h-139zM463 770h319q105 0 179.5 12.5t139.5 45t106.5 93t60.5 152.5q9 40 9 74 q-1 85 -57 137q-78 72 -272 72h-360z" />
<glyph unicode="Q" horiz-adv-x="1593" d="M230 530q1 98 24 205q34 157 106 295t177 247t250.5 172.5t312.5 63.5q317 0 462 -204q93 -132 93 -335q0 -109 -27 -239q-37 -181 -126.5 -335.5t-221.5 -260.5l166 -151l-98 -94l-183 167q-179 -100 -389 -100q-112 0 -203 28t-155 78.5t-107.5 121.5t-62.5 157 q-18 82 -18 174v10zM369 529q0 -94 25 -175q26 -84 76.5 -144.5t135.5 -95t197 -34.5q148 0 272 65l-141 129l94 97l168 -152q110 87 185 222t108 294q25 117 25 213q0 85 -20 154q-41 146 -148 219.5t-267 73.5q-137 0 -255.5 -54.5t-202.5 -148.5t-141.5 -210t-86.5 -247 q-24 -109 -24 -206z" />
<glyph unicode="R" horiz-adv-x="1366" d="M164 0l313 1475h578q248 0 355 -94q77 -68 76 -190q0 -48 -11 -104q-29 -138 -103 -220t-215 -140q39 -14 66 -38t39.5 -58t18.5 -66q4 -20 4 -46q1 -15 -1 -32q-4 -46 -8.5 -78t-13.5 -81q-31 -165 -30 -233q0 -66 23 -81l-2 -14h-153q-9 25 -9 77q0 62 13 163 q5 31 15 89.5t15 96.5t5 63q0 47 -13.5 80.5t-35 52.5t-56.5 30t-68.5 14.5t-80.5 3.5h-439l-143 -670h-139zM471 788h434q165 0 281 72.5t147 220.5q7 45 7 81v16q-2 42 -22.5 72.5t-47 51t-66 32.5t-80.5 17t-90 5h-442z" />
<glyph unicode="S" horiz-adv-x="1251" d="M182 440h135q-5 -37 -5 -71q0 -53 12 -96q20 -71 69 -112.5t116.5 -61t154.5 -19.5q187 0 299.5 86.5t140.5 218.5q7 32 7 60q0 30 -8 56q-15 50 -51.5 80t-89 54t-114.5 38.5t-126.5 32t-125.5 35.5t-111.5 49.5t-84.5 72.5t-46 106q-4 25 -5 54q0 44 11 95 q16 78 63.5 148.5t120 126t176.5 88t224 32.5q97 0 174 -22.5t126 -63t79 -95.5q29 -56 33 -121q1 -13 1 -26q0 -53 -11 -112h-134q8 44 8 82q0 34 -6 63q-14 61 -58.5 100.5t-103.5 58t-132 18.5q-102 0 -185 -29t-134.5 -77t-80 -104.5t-31.5 -115.5v-13q0 -47 20 -83 q23 -41 63.5 -66t95 -45t115 -32t123 -28.5t120.5 -34.5t106 -49.5t79 -73.5t41 -106q4 -24 5 -50q0 -45 -12 -97q-43 -203 -209.5 -316.5t-421.5 -113.5q-239 -1 -360 123q-86 88 -86 231q0 58 14 125z" />
<glyph unicode="T" d="M322 1356l24 119h1073l-24 -119h-467l-289 -1356h-139l288 1356h-466z" />
<glyph unicode="U" horiz-adv-x="1478" d="M287 555l194 920h140l-187 -879q-25 -118 -25 -207q-1 -117 43 -187q76 -122 304 -122q233 0 359 124.5t183 391.5l187 879h139l-194 -920q-62 -290 -239 -442t-460 -152q-285 -1 -395 153q-71 98 -71 252q0 86 22 189z" />
<glyph unicode="V" horiz-adv-x="1251" d="M350 1475h146l166 -1311l720 1311h146l-826 -1475h-153z" />
<glyph unicode="W" horiz-adv-x="1820" d="M342 1475h139l45 -1278h4l615 1278h155l64 -1278h4l594 1278h143l-700 -1475h-154l-65 1303h-4l-619 -1303h-153z" />
<glyph unicode="X" horiz-adv-x="1251" d="M37 0l670 758l-336 717h161l273 -621l536 621h162l-635 -717l344 -758h-159l-291 651l-567 -651h-158z" />
<glyph unicode="Y" horiz-adv-x="1251" d="M338 1475h160l282 -711l596 711h162l-711 -832l-137 -643h-139l135 633z" />
<glyph unicode="Z" horiz-adv-x="1251" d="M63 0l25 117l1208 1239h-864l25 119h1036l-25 -117l-1208 -1239h950l-24 -119h-1123z" />
<glyph unicode="[" horiz-adv-x="681" d="M102 -391l406 1904h391l-22 -102h-261l-360 -1700h256l-23 -102h-387z" />
<glyph unicode="\" horiz-adv-x="569" d="M301 1513h115l121 -1697h-115z" />
<glyph unicode="]" horiz-adv-x="681" d="M20 -391l23 102h260l361 1700h-256l22 102h387l-405 -1904h-392z" />
<glyph unicode="^" horiz-adv-x="1351" d="M256 502l668 928h106l277 -928h-117l-242 803l-573 -803h-119z" />
<glyph unicode="_" horiz-adv-x="1024" d="M-55 -256l22 102h1024l-22 -102h-1024z" />
<glyph unicode="`" horiz-adv-x="681" d="M403 1460h160l166 -284h-104z" />
<glyph unicode="a" d="M154 276q56 271 438 320l174 22q105 9 170 35q48 19 68 111q6 29 6 54q0 62 -36 104q-52 58 -188 57q-137 0 -227 -54.5t-133 -185.5h-125q35 121 113.5 201.5t177.5 115t219 34.5q84 0 147 -17t110 -56q46 -39 60 -102q6 -29 7 -64q0 -41 -9 -91l-122 -578 q-6 -31 -6 -52q0 -29 12 -39q8 -7 26 -7q28 0 78 16l-20 -96q-60 -20 -101 -20q-26 0 -53 6q-38 6 -55.5 30t-16.5 56.5t6 70.5q-194 -176 -432 -176q-148 -1 -234 79q-62 58 -63 151q0 35 9 75zM283 272q-5 -23 -5 -43q0 -59 43 -97q57 -50 152 -50q102 0 193.5 31 t164.5 103t95 175l35 166q-54 -20 -116 -32.5t-102 -17t-112 -9.5q-304 -22 -348 -226z" />
<glyph unicode="b" horiz-adv-x="1251" d="M162 0l313 1475h123l-125 -584q78 94 192 146.5t230 52.5q95 0 167.5 -30t115.5 -82.5t67 -123.5q23 -67 23 -144v-10q-2 -82 -19 -172q-26 -121 -74.5 -219.5t-121 -175.5t-175 -119.5t-227.5 -42.5q-107 0 -199.5 57.5t-123.5 157.5h-4l-39 -186h-123zM397 535 q-15 -74 -15 -138q0 -108 43 -188q69 -127 237 -127q159 0 283 110.5t167 305.5q24 87 24 165q0 11 -1 23q-4 88 -33 153t-93 102.5t-157 37.5q-162 0 -288.5 -129t-166.5 -315z" />
<glyph unicode="c" d="M188 350q2 84 21 178q23 112 76.5 212.5t130 179t180.5 124.5t219 46q187 0 281 -91q84 -81 83 -232q0 -19 -1 -40h-125q-6 120 -72.5 186t-187.5 66q-91 0 -170 -39t-134 -104.5t-93 -143.5t-56 -164q-16 -64 -16 -126q0 -19 2 -38q6 -80 32 -142.5t89 -101t155 -38.5 q135 0 235 75.5t150 209.5h131q-72 -184 -209.5 -290t-330.5 -106q-99 0 -174.5 28t-121.5 78q-45 49 -70 119q-24 66 -24 144v10z" />
<glyph unicode="d" horiz-adv-x="1251" d="M205 350q1 82 22 178q19 91 54.5 173t88.5 153.5t118.5 123.5t150.5 82t180 30q116 0 208 -52.5t128 -146.5l125 584h123l-313 -1475h-123l39 186h-5q-72 -100 -189 -157.5t-224 -57.5q-100 0 -175 28t-119 77q-46 50 -68 120q-22 68 -21 147v7zM352 498 q-14 -66 -14 -123q0 -111 52 -183q78 -110 237 -110q168 0 289.5 127t162.5 326q15 63 15 121q0 26 -3 50q-9 80 -40 141t-92 96.5t-142 35.5q-183 0 -306.5 -136t-158.5 -345z" />
<glyph unicode="e" d="M184 348q2 83 21 178q25 116 80.5 218.5t133 179.5t179.5 121.5t213 44.5q221 0 313 -153q55 -91 54 -228q0 -93 -25 -207h-823q-16 -61 -16 -117q0 -23 3 -45q9 -76 39.5 -133.5t93 -91t148.5 -33.5q122 0 221.5 64t151.5 180h137q-184 -355 -535 -355 q-100 0 -175.5 27.5t-120.5 77.5t-69 120q-23 65 -24 142v10zM352 604h692q12 56 12 105q0 94 -44 164q-66 106 -224 106q-154 0 -267.5 -106t-168.5 -269z" />
<glyph unicode="f" horiz-adv-x="569" d="M199 0l202 958h-157l22 103h158l37 168q57 274 282 274q60 0 101 -8l-25 -113q-42 11 -69 11q-37 0 -65.5 -12.5t-45.5 -30t-30.5 -47t-20 -53t-13.5 -58.5l-28 -131h205l-23 -103h-205l-202 -958h-123z" />
<glyph unicode="g" horiz-adv-x="1251" d="M117 -129h131q1 -58 22.5 -97.5t61.5 -60t85.5 -29t104.5 -8.5q97 0 174.5 29t127 74t87 113t57.5 132t36 146q-78 -94 -192 -146.5t-230 -52.5q-95 0 -167.5 30t-115.5 82t-67 123q-24 67 -24 144v10q2 82 19 172q26 121 74.5 220t121 176t175 119.5t227.5 42.5 q107 0 200 -58t124 -158h4l39 187h123l-203 -959q-20 -91 -48.5 -165.5t-77.5 -145.5t-114 -119t-160 -77t-212 -29q-111 0 -193 29.5t-123.5 76t-57.5 97.5q-12 34 -12 69q0 16 3 33zM342 376q5 -88 34 -153t93.5 -103t157.5 -38q162 0 287 128.5t165 315.5q14 77 14 143 q0 47 -7 89q-17 100 -87 160.5t-182 60.5q-159 0 -284 -110.5t-168 -305.5q-23 -86 -23 -162v-25z" />
<glyph unicode="h" d="M147 0l314 1475h123l-119 -562q102 88 189.5 132.5t189.5 44.5q221 0 291 -152q16 -36 19 -80q1 -18 1 -33q-1 -24 -3 -43q-4 -32 -15 -88l-148 -694h-123l148 692q12 56 12 101q0 71 -30 115q-50 70 -195 71q-108 0 -199.5 -59.5t-140.5 -147.5q-43 -74 -70 -201 l-121 -571h-123z" />
<glyph unicode="i" horiz-adv-x="454" d="M166 0l225 1061h123l-225 -1061h-123zM434 1292l39 183h135l-39 -183h-135z" />
<glyph unicode="j" horiz-adv-x="454" d="M-78 -410l25 109q27 -4 50 -4q59 0 89 25q41 33 61 122l259 1219h122l-256 -1202q-13 -61 -23.5 -98.5t-30.5 -75.5t-47 -58t-69 -32.5t-100 -12.5q-44 0 -80 8zM449 1292l38 183h136l-39 -183h-135z" />
<glyph unicode="k" horiz-adv-x="1024" d="M139 0l314 1475h122l-194 -918l627 504h168l-480 -383l301 -678h-137l-272 592l-240 -191l-86 -401h-123z" />
<glyph unicode="l" horiz-adv-x="454" d="M166 0l313 1475h123l-313 -1475h-123z" />
<glyph unicode="m" horiz-adv-x="1705" d="M131 0l225 1061h123l-33 -160h5q65 89 163.5 139t202.5 50q71 0 121.5 -15.5t79.5 -45.5t44 -63.5t23 -80.5q72 101 173 153t217 52q84 0 140 -24t83 -62q28 -37 36 -95q5 -35 5 -69q-1 -22 -3 -44q-6 -54 -20 -126l-143 -670h-123l156 733q11 49 11 89q0 58 -23 94 q-38 62 -162 63q-149 0 -267 -121q-47 -48 -81 -129t-50 -158l-121 -571h-122l155 733q11 49 11 89q0 58 -23 94q-38 62 -162 63q-148 0 -266 -121q-47 -48 -81 -129t-50 -158l-121 -571h-123z" />
<glyph unicode="n" d="M147 0l226 1061h123l-31 -148q102 88 189.5 132.5t189.5 44.5q221 0 291 -152q16 -36 19 -80q1 -18 1 -33q-1 -24 -3 -43q-4 -32 -15 -88l-148 -694h-123l148 692q12 56 12 101q0 71 -30 115q-50 70 -195 71q-108 0 -199.5 -59.5t-140.5 -147.5q-43 -74 -70 -201 l-121 -571h-123z" />
<glyph unicode="o" d="M178 287q-6 37 -6 79q0 75 18 164q25 117 77.5 218t129 177.5t180.5 120.5t224 44q97 0 172.5 -28.5t121.5 -79t72 -120.5q26 -69 26 -151q0 -84 -19 -181q-54 -252 -221.5 -405.5t-389.5 -153.5q-103 2 -183.5 37t-133 105t-68.5 174zM322 530q-16 -78 -16 -144 q0 -106 42 -182q68 -122 240 -122q93 0 172 37.5t134 102t92 142t56 166.5q16 77 18 143v12q0 59 -14 111q-15 57 -47.5 97t-88.5 63t-132 23q-93 0 -172.5 -37.5t-134.5 -102t-92.5 -142.5t-56.5 -167z" />
<glyph unicode="p" horiz-adv-x="1251" d="M74 -418l313 1479h123l-39 -187h4q72 100 189.5 158t224.5 58q100 0 175 -28t119.5 -78t66.5 -120q21 -68 21 -146v-8q-1 -82 -22 -178q-24 -114 -74 -213.5t-123 -178t-175 -124t-220 -45.5q-116 0 -207.5 52.5t-127.5 146.5l-125 -588h-123zM386 356q9 -81 40.5 -142 t93 -96.5t142.5 -35.5q123 0 221.5 65.5t158 172.5t82.5 243q14 67 14 124q0 109 -50 181q-77 111 -236 111q-169 0 -291.5 -127.5t-163.5 -325.5q-14 -62 -14 -119q0 -26 3 -51z" />
<glyph unicode="q" horiz-adv-x="1251" d="M208 360q2 82 19 172q26 121 74.5 220t121 176t175 119.5t227.5 42.5q107 0 200 -58t124 -158h4l39 187h123l-314 -1479h-122l125 588q-78 -94 -192 -146.5t-230 -52.5q-95 0 -167.5 30t-115.5 82t-67 123q-24 67 -24 144v10zM352 498q-14 -66 -14 -123q0 -110 52 -183 q77 -110 237 -110q168 0 289.5 127t162.5 326q15 63 15 121q0 25 -3 50q-9 80 -40 141t-92 96.5t-142 35.5q-183 0 -306.5 -136t-158.5 -345z" />
<glyph unicode="r" horiz-adv-x="681" d="M154 0l225 1061h123l-43 -199h4q77 125 168 176.5t227 51.5l-29 -134h-12q-336 0 -430 -436l-111 -520h-122z" />
<glyph unicode="s" horiz-adv-x="1024" d="M164 332h125q1 -135 63.5 -192.5t202.5 -57.5q126 0 205 57t98 140q4 20 4 38q0 27 -9 47q-16 36 -51 55t-83 35t-102 25.5t-107.5 24.5t-100 33t-79.5 51.5t-45 79.5q-6 21 -6 49q0 31 8 69q28 135 145.5 219.5t290.5 84.5q177 0 265 -80q75 -68 75 -205q0 -23 -2 -49 h-125q1 15 1 29q-1 95 -55 141q-62 52 -184 53q-115 0 -187.5 -49t-90.5 -133q-4 -18 -4 -33q0 -22 8 -41q12 -32 40 -51.5t68 -36t86.5 -27.5t95 -24.5t94.5 -28t84.5 -38t64.5 -53.5q25 -31 35 -77q4 -19 4 -41q0 -30 -7 -65q-31 -148 -167 -229t-330 -81q-180 0 -266 102 q-67 80 -67 193q0 32 5 66z" />
<glyph unicode="t" horiz-adv-x="569" d="M229 182l164 776h-149l22 103h150l63 295h123l-63 -295h198l-22 -103h-199l-154 -727q-14 -49 -14 -81q0 -18 5 -32q13 -36 85 -36q42 0 103 14l-21 -100q-6 -1 -35.5 -8.5t-57.5 -12t-54 -4.5q-95 1 -131 49q-22 29 -23 82q0 35 10 80z" />
<glyph unicode="u" d="M225 362l148 699h123l-148 -696q-11 -52 -11 -95q-1 -72 31 -116q50 -72 193 -72q150 0 260.5 111.5t147.5 289.5l123 578h122l-225 -1061h-123l31 147q-41 -38 -69.5 -60.5t-78 -53.5t-107.5 -46.5t-124 -15.5q-308 0 -308 262q0 58 15 129z" />
<glyph unicode="v" horiz-adv-x="1024" d="M260 1061h133l152 -909l536 909h133l-636 -1061h-138z" />
<glyph unicode="w" horiz-adv-x="1478" d="M256 1061h123l82 -905l438 905h137l43 -897l469 897h125l-569 -1061h-131l-43 891h-4l-424 -891h-148z" />
<glyph unicode="x" horiz-adv-x="1024" d="M37 0l524 549l-266 512h151l203 -422l391 422h156l-491 -512l280 -549h-147l-224 459l-428 -459h-149z" />
<glyph unicode="y" horiz-adv-x="1024" d="M53 -403l25 114q62 -12 100 -12q39 0 74 20.5t62 57t48 72t45 78.5t39 65l-184 1069h137l148 -911l532 911h133l-618 -1047q-42 -71 -64.5 -109t-57.5 -92t-58 -82t-55.5 -61.5t-60 -49.5t-61 -27t-69.5 -11q-57 0 -115 15z" />
<glyph unicode="z" horiz-adv-x="1024" d="M68 0l22 109l885 849h-658l23 103h815l-22 -109l-885 -850h731l-23 -102h-888z" />
<glyph unicode="{" horiz-adv-x="681" d="M211 559v4q60 16 98.5 36.5t62.5 53t36 66t24 90.5l80 373q39 186 117.5 259.5t249.5 67.5q-180 -58 -220 -247l-84 -394q-13 -65 -29 -110t-42.5 -86t-66 -68t-95.5 -41v-4q92 -22 115 -92t-6 -184l-89 -422q-23 -103 6.5 -161.5t120.5 -86.5l-2 -4q-177 -3 -229.5 65 t-17.5 230l88 418q13 63 11.5 111t-33 80.5t-95.5 45.5z" />
<glyph unicode="|" horiz-adv-x="823" d="M512 -559v2238h104v-2238h-104z" />
<glyph unicode="}" horiz-adv-x="681" d="M39 -379q176 57 217 248l84 393q11 52 23 89.5t30.5 74.5t42 62.5t58 46.5t79.5 32v4q-63 15 -92.5 51.5t-30.5 92.5t15 133l90 422q22 104 -7.5 162t-119.5 86v4q177 3 230 -65t18 -230l-88 -418q-13 -63 -11.5 -111t33 -81t95.5 -46v-4q-60 -16 -98.5 -36.5 t-62.5 -52.5t-36.5 -66t-24.5 -90l-77 -373q-39 -187 -117.5 -260.5t-249.5 -67.5z" />
<glyph unicode="~" horiz-adv-x="1351" d="M260 453q40 45 67 72t72.5 64.5t94.5 56t100 18.5q79 0 223 -74q118 -59 160 -69q20 -5 37 -5q107 0 239 178l68 -69q-165 -224 -334 -224q-71 0 -258 86q-9 4 -45.5 24t-62 29t-52.5 9q-39 0 -76.5 -17t-73.5 -51.5t-57.5 -59t-54.5 -65.5z" />
<glyph unicode="&#xa1;" horiz-adv-x="681" d="M184 -383l99 459l166 645h92l-109 -645l-98 -459h-150zM461 911l37 179h149l-37 -179h-149z" />
<glyph unicode="&#xa2;" d="M190 -289l166 307q-116 63 -153.5 201t2.5 309q56 263 223.5 412.5t382.5 149.5q55 0 119 -11l135 246h98l-149 -274q175 -81 160 -324h-125q-6 139 -99 207l-454 -838q54 -14 102 -14q135 0 235 75.5t150 209.5h131q-61 -169 -204.5 -282.5t-336.5 -113.5q-65 0 -135 17 l-151 -277h-97zM328.5 303.5q20.5 -110.5 91.5 -164.5l450 830q-34 10 -82 10q-91 0 -169.5 -39t-134 -104.5t-93 -143.5t-55.5 -164q-28 -114 -7.5 -224.5z" />
<glyph unicode="&#xa3;" d="M104 113q111 70 191.5 165t103.5 203q21 93 -4 181h-202l18 86h166q-4 16 -15 45.5t-18.5 54t-14 58.5t-5 75t11.5 88q35 167 175.5 271t360.5 104q206 0 311 -121.5t60 -323.5h-135q27 160 -41.5 247t-216.5 87q-85 0 -164 -28.5t-140.5 -91.5t-80.5 -150 q-5 -44 -5.5 -70t10 -64t19.5 -60.5t24.5 -59.5t23.5 -61h340l-19 -86h-309q4 -86 -8 -140q-40 -187 -279 -385l4 -4q116 55 195 55q102 0 194 -43t162 -43q45 0 91.5 19t75 38.5t79.5 59.5l47 -104q-111 -85 -188.5 -114.5t-198.5 -29.5q-48 0 -152 45q-108 45 -192 45 q-19 0 -40 -3.5t-36 -6.5t-40.5 -12t-35.5 -13t-40 -16.5t-37 -15.5z" />
<glyph unicode="&#xa4;" d="M113 225l106 86q-67 143 -33 303q35 170 164 310l-69 88l129 108l71 -88q153 101 338 101q152 0 277 -101l108 88l84 -108l-106 -88q68 -144 30 -320q-18 -83 -56.5 -151t-104.5 -142l69 -86l-129 -108l-71 88q-161 -103 -338 -103q-149 0 -277 103l-108 -88zM334 614 q-23 -97 8 -182t105 -134.5t171 -49.5q155 0 287 108.5t164 264.5q21 96 -9 181t-103 135t-171 48q-159 3 -290 -104.5t-162 -266.5z" />
<glyph unicode="&#xa5;" d="M225 446l25 111h373l18 86l-49 135h-295l22 111h228l-225 586h155l252 -711l565 711h150l-475 -586h227l-22 -111h-295l-107 -135l-18 -86h372l-24 -111h-373l-94 -446h-131l94 446h-373z" />
<glyph unicode="&#xa6;" horiz-adv-x="821" d="M512 -389v780h102v-780h-102zM512 729v782h102v-782h-102z" />
<glyph unicode="&#xa7;" d="M193 2h124q-26 -127 25 -194.5t178 -67.5q93 0 171 51t97 141q4 19 5 37.5t-4 36t-8.5 31.5t-16 31.5t-18 27t-23.5 27t-23.5 23.5t-27 23t-25.5 20t-26 20l-234 168q-90 66 -127 138t-16 171t99 177t183 118q-42 61 -57.5 114t-1.5 122q28 126 144 211t290 85 q169 0 241.5 -98t35.5 -268h-111q25 129 -22.5 192.5t-176.5 63.5q-102 0 -176.5 -51t-95.5 -148q-9 -45 6 -86.5t48.5 -76t78.5 -67.5t96.5 -65.5t102.5 -65.5t95.5 -71t76 -79t44.5 -92.5t1 -108.5q-10 -46 -31.5 -87t-46.5 -70.5t-64 -61t-70.5 -52t-80.5 -49.5 q43 -51 59 -87q27 -65 11 -138q-31 -151 -151 -234.5t-275 -83.5q-172 0 -251.5 100.5t-51.5 272.5zM357.5 631q7.5 -34 30 -63t43 -48.5t52.5 -44.5l316 -235q91 45 152.5 99.5t78.5 131.5q8 39 -1 73.5t-34 63.5t-47.5 48t-56.5 42l-307 217q-198 -75 -226 -213 q-8 -37 -0.5 -71z" />
<glyph unicode="&#xa8;" horiz-adv-x="681" d="M377 1196l45 209h133l-45 -209h-133zM702 1196l46 209h133l-45 -209h-134z" />
<glyph unicode="&#xa9;" horiz-adv-x="1638" d="M188 493q-12 116 13 246q44 210 186 388t343.5 282t412.5 104q126 0 236.5 -39.5t189 -110t131.5 -168t65 -212.5t-12 -244q-45 -212 -187 -391t-342 -283t-411 -104q-127 0 -237.5 39.5t-190 110.5t-132.5 168.5t-65 213.5zM324 739q-41 -188 10.5 -343t183.5 -244 t318 -89q185 0 353 89t284 243.5t157 343.5q40 187 -11.5 340.5t-182.5 242.5t-316 89q-186 0 -355 -89t-285 -242.5t-156 -340.5zM584 745q42 196 183 320.5t335 124.5q142 0 226 -78t77 -215h-111q3 91 -56 147t-153 56q-147 0 -247.5 -99.5t-132.5 -252.5 q-18 -70 -9.5 -135t35 -115t80.5 -80.5t127 -30.5q93 0 177.5 58.5t115.5 152.5h110q-42 -136 -162.5 -218.5t-258.5 -82.5q-192 0 -284 127t-52 321z" />
<glyph unicode="&#xaa;" horiz-adv-x="684" d="M233 1024q37 163 281 193l115 14q74 5 110 20q10 4 17.5 11t12.5 18t7.5 17.5t5.5 19.5q13 61 -21 98t-122 37q-181 0 -233 -149h-82q32 107 120 158.5t209 51.5q114 0 172 -47t35 -151l-72 -346q-9 -44 4.5 -54.5t67.5 5.5l-12 -58q-49 -16 -100 -10q-35 5 -43 30t-3 66 q-121 -106 -278 -106q-97 0 -153 47t-38 135zM313 1022q-11 -55 28 -87t101 -32q103 0 187.5 50t105.5 141l21 100q-68 -25 -215 -37q-203 -13 -228 -135z" />
<glyph unicode="&#xab;" d="M330 467l28 129l349 231l-29 -129l-248 -168l178 -163l-26 -127zM707 467l28 129l348 231l-28 -129l-248 -168l178 -163l-27 -127z" />
<glyph unicode="&#xac;" horiz-adv-x="1351" d="M303 651l25 123h1024l-115 -545h-131l90 422h-893z" />
<glyph unicode="&#xad;" horiz-adv-x="681" d="M182 469l27 127h518l-27 -127h-518z" />
<glyph unicode="&#xae;" horiz-adv-x="1638" d="M188 493q-12 116 13 246q44 210 186 388t343.5 282t412.5 104q126 0 236.5 -39.5t189 -110t131.5 -168t65 -212.5t-12 -244q-45 -212 -187 -391t-342 -283t-411 -104q-127 0 -237.5 39.5t-190 110.5t-132.5 168.5t-65 213.5zM324 739q-41 -188 10.5 -343t183.5 -244 t318 -89q185 0 353 89t284 243.5t157 343.5q40 187 -11.5 340.5t-182.5 242.5t-316 89q-186 0 -355 -89t-285 -242.5t-156 -340.5zM598 305l184 866h379q165 0 223.5 -58t34.5 -171q-50 -230 -323 -237l178 -400h-127l-164 400h-195l-83 -400h-107zM807 788h162 q11 0 38 -0.5t41 -0.5t40.5 1.5t42 4t38.5 7.5t37.5 13t32.5 20t29 27.5t21.5 36.5t15.5 47q10 48 -1 80t-42 47t-63.5 20t-78.5 5h-248z" />
<glyph unicode="&#xaf;" horiz-adv-x="681" d="M313 1253l21 93h606l-20 -93h-607z" />
<glyph unicode="&#xb0;" horiz-adv-x="819" d="M344 1137q25 126 135 216.5t238 90.5q126 0 196.5 -90.5t44.5 -216.5q-28 -127 -137 -217.5t-235 -90.5q-128 0 -199 90.5t-43 217.5zM426 1137q-20 -94 32 -160t146 -66q92 0 172.5 66t100.5 160q20 92 -33.5 158.5t-147.5 66.5q-92 0 -171.5 -66.5t-98.5 -158.5z" />
<glyph unicode="&#xb1;" horiz-adv-x="1351" d="M164 0l26 123h1024l-26 -123h-1024zM281 553l26 123h451l73 348h123l-73 -348h450l-26 -123h-451l-74 -348h-123l74 348h-450z" />
<glyph unicode="&#xb2;" horiz-adv-x="681" d="M168 647q15 69 40 118t77 93q64 56 144 102.5t141 75t117.5 60t93 74t48.5 100.5q17 82 -32 130t-138 48q-91 0 -162.5 -64.5t-86.5 -154.5h-91q26 129 126.5 206.5t238.5 77.5q136 0 198.5 -67.5t39.5 -171.5q-14 -65 -53 -117.5t-96 -90t-112 -64.5t-123 -58.5 t-106 -54.5q-64 -39 -104 -79t-56 -97h523l-15 -66h-612z" />
<glyph unicode="&#xb3;" horiz-adv-x="681" d="M213 897h86q-21 -96 31 -148.5t159 -52.5q100 0 181 59.5t92 135.5q19 100 -54 141t-208 33l12 63q131 0 207.5 36.5t95.5 129.5q16 75 -32.5 114.5t-133.5 39.5q-90 0 -157 -52t-84 -134h-84q24 116 131 194q81 57 225 57q117 0 181 -55t42 -158q-28 -139 -174 -194 q154 -47 121 -213q-24 -111 -121 -185t-240 -77q-166 0 -229.5 59t-46.5 207z" />
<glyph unicode="&#xb4;" horiz-adv-x="681" d="M473 1176l289 284h158l-342 -284h-105z" />
<glyph unicode="&#xb5;" d="M59 -418l314 1479h123l-148 -696q-30 -140 20.5 -211.5t192.5 -71.5q150 0 260.5 111.5t147.5 289.5l123 578h122l-225 -1061h-123l31 147q-41 -38 -69.5 -60.5t-78 -53.5t-107.5 -46.5t-124 -15.5q-149 0 -239 66l-97 -455h-123z" />
<glyph unicode="&#xb6;" horiz-adv-x="1331" d="M365 1077q40 190 182 294t358 104h445l-377 -1774h-123l348 1636h-262l-348 -1636h-123l209 987q-103 -1 -182 52t-114 143.5t-13 193.5z" />
<glyph unicode="&#xb7;" horiz-adv-x="569" d="M336 717q9 39 46.5 68.5t76.5 29.5q40 0 62.5 -29t13.5 -69q-8 -40 -43 -70.5t-76 -30.5t-64.5 30.5t-15.5 70.5z" />
<glyph unicode="&#xb8;" horiz-adv-x="681" d="M29 -385l43 61q88 -30 125 -30q52 0 98.5 24t56.5 72q8 39 -17 59.5t-67 20.5q-24 0 -94 -17l-24 27l157 168h80l-123 -121q54 12 78 12q64 0 100.5 -32.5t34.5 -73.5q-4 -103 -83 -156t-187 -53q-85 0 -178 39z" />
<glyph unicode="&#xb9;" horiz-adv-x="681" d="M453 1290l10 53q52 3 82 6.5t67 13.5t60.5 27.5t47 48t40.5 74.5h67l-184 -866h-86l137 643h-241z" />
<glyph unicode="&#xba;" horiz-adv-x="684" d="M272 1178q32 147 135.5 241t256.5 94q155 0 217 -94t30 -241q-32 -151 -139.5 -243.5t-251.5 -92.5q-138 3 -210 90t-38 246zM352 1178q-25 -122 22.5 -198.5t160.5 -76.5q117 0 194.5 81t101.5 194q14 56 9.5 106t-23.5 87.5t-61.5 59t-104.5 21.5q-118 0 -196.5 -80.5 t-102.5 -193.5z" />
<glyph unicode="&#xbb;" d="M283 240l26 129l250 168l-178 163l27 127l249 -227l-26 -129zM659 240l27 129l250 168l-178 163l26 127l250 -227l-26 -129z" />
<glyph unicode="&#xbc;" horiz-adv-x="1708" d="M338 -29l1223 1473h104l-1223 -1473h-104zM356 1290l11 53q52 3 82 6.5t67 13.5t60.5 27.5t47 48t40.5 74.5h67l-184 -866h-86l137 643h-242zM1028 213l14 68l560 577h77l-123 -577h130l-15 -68h-129l-45 -213h-86l45 213h-428zM1126 281h344l99 458z" />
<glyph unicode="&#xbd;" horiz-adv-x="1708" d="M256 -29l1223 1473h104l-1223 -1473h-104zM356 1290l11 53q52 3 82 6.5t67 13.5t60.5 27.5t47 48t40.5 74.5h67l-184 -866h-86l137 643h-242zM1006 0q15 70 40 118.5t76 92.5q64 56 144 102.5t141 75t117.5 60t93 74t49.5 100.5q17 82 -32 130t-138 48q-91 0 -164 -65 t-88 -154h-90q28 129 128.5 206.5t238.5 77.5q136 0 198 -67.5t39 -171.5q-14 -65 -53 -117.5t-96 -90t-111.5 -64.5t-122.5 -58.5t-106 -54.5q-64 -39 -104 -79t-56 -97h522l-14 -66h-612z" />
<glyph unicode="&#xbe;" horiz-adv-x="1708" d="M272 897h86q-21 -96 31.5 -148.5t159.5 -52.5q100 0 180.5 59.5t91.5 135.5q19 100 -54 141t-208 33l12 63q131 0 207.5 36.5t95.5 129.5q16 75 -32 114.5t-133 39.5q-90 0 -157.5 -52t-84.5 -134h-84q24 116 131 194q81 57 225 57q117 0 181.5 -55t42.5 -158 q-28 -138 -175 -194q154 -47 121 -213q-24 -111 -120.5 -185t-239.5 -77q-166 0 -230 59t-47 207zM420 -29l1222 1473h105l-1223 -1473h-104zM1028 213l14 68l560 577h77l-123 -577h130l-15 -68h-129l-45 -213h-86l45 213h-428zM1126 281h344l99 458z" />
<glyph unicode="&#xbf;" horiz-adv-x="1024" d="M49 -39q12 57 42 108t67.5 88.5t86.5 78t94 73.5t95 77.5t86 86.5q28 33 48 80t27.5 77t18.5 87h119q-26 -133 -64 -218.5t-128 -162.5q-29 -25 -74 -61t-78 -61.5t-71 -59.5t-64 -63.5t-47 -66.5t-29 -73q-24 -114 45 -189t217 -75t254 98t133 248h125 q-18 -133 -95.5 -238t-194 -162t-248.5 -57q-207 0 -304.5 105t-60.5 280zM637 909l39 181h149l-39 -181h-149z" />
<glyph unicode="&#xc0;" horiz-adv-x="1366" d="M31 0l893 1475h157l252 -1475h-143l-72 463h-672l-272 -463h-143zM518 582h578l-123 774zM831 1874h160l168 -285h-104z" />
<glyph unicode="&#xc1;" horiz-adv-x="1366" d="M31 0l893 1475h157l252 -1475h-143l-72 463h-672l-272 -463h-143zM518 582h578l-123 774zM903 1589l287 285h158l-340 -285h-105z" />
<glyph unicode="&#xc2;" horiz-adv-x="1366" d="M31 0l893 1475h157l252 -1475h-143l-72 463h-672l-272 -463h-143zM518 582h578l-123 774zM729 1589l293 285h137l172 -285h-133l-123 209l-213 -209h-133z" />
<glyph unicode="&#xc3;" horiz-adv-x="1366" d="M31 0l893 1475h157l252 -1475h-143l-72 463h-672l-272 -463h-143zM518 582h578l-123 774zM717 1614q21 65 67 121q41 44 94 64.5t103 8.5q30 -6 112 -47t121 -41q69 0 111 103h78q-7 -24 -33 -78q-80 -123 -178 -123q-59 0 -146.5 46t-132.5 46q-41 0 -68 -26t-54 -74 h-74z" />
<glyph unicode="&#xc4;" horiz-adv-x="1366" d="M31 0l893 1475h157l252 -1475h-143l-72 463h-672l-272 -463h-143zM518 582h578l-123 774zM807 1610l45 209h133l-45 -209h-133zM1133 1610l45 209h133l-45 -209h-133z" />
<glyph unicode="&#xc5;" horiz-adv-x="1366" d="M31 0l893 1475h157l252 -1475h-143l-72 463h-672l-272 -463h-143zM518 582h578l-123 774zM903 1800q17 82 91.5 143.5t156.5 61.5q83 0 130 -61.5t30 -143.5q-19 -84 -91 -143.5t-155 -59.5q-84 0 -132.5 60t-29.5 143zM971 1800q-12 -55 20.5 -95t87.5 -40 q54 0 103 40.5t61 94.5q11 55 -20 96t-86 41q-56 0 -106 -41t-60 -96z" />
<glyph unicode="&#xc6;" horiz-adv-x="2048" d="M10 0l955 1475h1290l-25 -119h-835l-115 -533h760l-25 -118h-760l-125 -586h861l-25 -119h-999l98 463h-621l-294 -463h-140zM526 582h564l165 774h-233z" />
<glyph unicode="&#xc7;" horiz-adv-x="1478" d="M226.5 505q3.5 109 29.5 232q43 205 127 357.5t197 242.5t244 133t282 43q231 0 358 -120.5t115 -345.5h-143q-3 184 -100.5 266t-291.5 82q-129 0 -240 -52.5t-191 -144.5t-135 -207.5t-83 -249.5q-22 -104 -26 -196t15 -179t64 -149t128.5 -99.5t199.5 -37.5 q184 0 327.5 111t225.5 294h146q-49 -110 -113 -199t-151.5 -162.5t-205 -115.5t-255.5 -45l-86 -84q54 12 77 12q64 0 101 -32.5t35 -73.5q-3 -70 -44 -119t-99.5 -69.5t-127.5 -20.5q-85 0 -178 39l43 61q88 -30 125 -30q52 0 99 24t57 72q8 39 -17 59.5t-67 20.5 q-25 0 -95 -17l-24 27l123 131q-120 8 -208.5 52.5t-140 116t-76 168t-21 205.5z" />
<glyph unicode="&#xc8;" horiz-adv-x="1251" d="M166 0l313 1475h981l-24 -119h-842l-115 -533h760l-25 -118h-759l-125 -586h862l-25 -119h-1001zM774 1874h160l168 -285h-105z" />
<glyph unicode="&#xc9;" horiz-adv-x="1251" d="M166 0l313 1475h981l-24 -119h-842l-115 -533h760l-25 -118h-759l-125 -586h862l-25 -119h-1001zM846 1589l287 285h157l-340 -285h-104z" />
<glyph unicode="&#xca;" horiz-adv-x="1251" d="M166 0l313 1475h981l-24 -119h-842l-115 -533h760l-25 -118h-759l-125 -586h862l-25 -119h-1001zM672 1589l293 285h137l172 -285h-133l-123 209l-213 -209h-133z" />
<glyph unicode="&#xcb;" horiz-adv-x="1251" d="M166 0l313 1475h981l-24 -119h-842l-115 -533h760l-25 -118h-759l-125 -586h862l-25 -119h-1001zM750 1610l45 209h133l-45 -209h-133zM1075 1610l45 209h133l-45 -209h-133z" />
<glyph unicode="&#xcc;" horiz-adv-x="569" d="M215 0l313 1475h140l-314 -1475h-139zM434 1874h160l168 -285h-105z" />
<glyph unicode="&#xcd;" horiz-adv-x="569" d="M215 0l313 1475h140l-314 -1475h-139zM463 1589l287 285h157l-340 -285h-104z" />
<glyph unicode="&#xce;" horiz-adv-x="569" d="M215 0l313 1475h140l-314 -1475h-139zM289 1589l293 285h137l172 -285h-133l-123 209l-213 -209h-133z" />
<glyph unicode="&#xcf;" horiz-adv-x="569" d="M215 0l313 1475h140l-314 -1475h-139zM367 1610l45 209h133l-45 -209h-133zM692 1610l45 209h133l-45 -209h-133z" />
<glyph unicode="&#xd0;" horiz-adv-x="1478" d="M166 0l153 723h-145l25 119h145l135 633h504q148 0 250 -21.5t182 -89.5q58 -50 92 -127.5t41.5 -165.5t2 -169.5t-22.5 -162.5q-34 -162 -107.5 -309t-189.5 -250q-116 -105 -253.5 -142.5t-307.5 -37.5h-504zM330 119h334q109 0 191.5 13t168.5 54q78 36 142.5 99 t107 141t70 154.5t45.5 158.5q89 424 -136 561q-93 56 -325 56h-334l-111 -514h330l-25 -119h-329z" />
<glyph unicode="&#xd1;" horiz-adv-x="1478" d="M162 0l313 1475h158l577 -1289h4l275 1289h139l-313 -1475h-162l-575 1286h-5l-272 -1286h-139zM774 1614q21 63 68 121q41 44 93.5 64.5t102.5 8.5q30 -6 112 -47t122 -41q68 0 110 103h78q-7 -24 -33 -78q-80 -123 -178 -123q-59 0 -146 46t-132 46q-41 0 -68.5 -26 t-54.5 -74h-74z" />
<glyph unicode="&#xd2;" horiz-adv-x="1593" d="M240 530q1 98 24 205q34 162 109 303t182 247t250.5 167t304.5 61q113 0 205.5 -27.5t157 -78t108.5 -121.5t63.5 -157.5t18 -185.5t-24.5 -208q-34 -161 -108 -300t-180.5 -245.5t-252 -167.5t-311.5 -61q-112 0 -203 28t-155 78.5t-107.5 121.5t-62.5 157t-18 184z M379.5 533q-0.5 -95 25 -178.5t76 -144t135.5 -95.5t197 -35t211.5 35t175.5 96t136.5 145t100.5 179t62 200q66 307 -44 483.5t-365 176.5q-110 0 -209.5 -36t-175.5 -98t-137 -146.5t-101.5 -179.5t-63.5 -200q-23 -107 -23.5 -202zM946 1874h160l168 -285h-105z" />
<glyph unicode="&#xd3;" horiz-adv-x="1593" d="M240 530q1 98 24 205q34 162 109 303t182 247t250.5 167t304.5 61q113 0 205.5 -27.5t157 -78t108.5 -121.5t63.5 -157.5t18 -185.5t-24.5 -208q-34 -161 -108 -300t-180.5 -245.5t-252 -167.5t-311.5 -61q-112 0 -203 28t-155 78.5t-107.5 121.5t-62.5 157t-18 184z M379.5 533q-0.5 -95 25 -178.5t76 -144t135.5 -95.5t197 -35t211.5 35t175.5 96t136.5 145t100.5 179t62 200q66 307 -44 483.5t-365 176.5q-110 0 -209.5 -36t-175.5 -98t-137 -146.5t-101.5 -179.5t-63.5 -200q-23 -107 -23.5 -202zM1018 1589l287 285h157l-340 -285h-104 z" />
<glyph unicode="&#xd4;" horiz-adv-x="1593" d="M240 530q1 98 24 205q34 162 109 303t182 247t250.5 167t304.5 61q113 0 205.5 -27.5t157 -78t108.5 -121.5t63.5 -157.5t18 -185.5t-24.5 -208q-34 -161 -108 -300t-180.5 -245.5t-252 -167.5t-311.5 -61q-112 0 -203 28t-155 78.5t-107.5 121.5t-62.5 157t-18 184z M379.5 533q-0.5 -95 25 -178.5t76 -144t135.5 -95.5t197 -35t211.5 35t175.5 96t136.5 145t100.5 179t62 200q66 307 -44 483.5t-365 176.5q-110 0 -209.5 -36t-175.5 -98t-137 -146.5t-101.5 -179.5t-63.5 -200q-23 -107 -23.5 -202zM844 1589l293 285h137l172 -285h-133 l-123 209l-213 -209h-133z" />
<glyph unicode="&#xd5;" horiz-adv-x="1593" d="M240 530q1 98 24 205q34 162 109 303t182 247t250.5 167t304.5 61q113 0 205.5 -27.5t157 -78t108.5 -121.5t63.5 -157.5t18 -185.5t-24.5 -208q-34 -161 -108 -300t-180.5 -245.5t-252 -167.5t-311.5 -61q-112 0 -203 28t-155 78.5t-107.5 121.5t-62.5 157t-18 184z M379.5 533q-0.5 -95 25 -178.5t76 -144t135.5 -95.5t197 -35t211.5 35t175.5 96t136.5 145t100.5 179t62 200q66 307 -44 483.5t-365 176.5q-110 0 -209.5 -36t-175.5 -98t-137 -146.5t-101.5 -179.5t-63.5 -200q-23 -107 -23.5 -202zM831 1614q21 63 68 121q41 44 94 64.5 t103 8.5q30 -6 112 -47t121 -41q69 0 111 103h78q-7 -24 -33 -78q-80 -123 -178 -123q-59 0 -146.5 46t-132.5 46q-41 0 -68.5 -26t-54.5 -74h-74z" />
<glyph unicode="&#xd6;" horiz-adv-x="1593" d="M240 530q1 98 24 205q34 162 109 303t182 247t250.5 167t304.5 61q113 0 205.5 -27.5t157 -78t108.5 -121.5t63.5 -157.5t18 -185.5t-24.5 -208q-34 -161 -108 -300t-180.5 -245.5t-252 -167.5t-311.5 -61q-112 0 -203 28t-155 78.5t-107.5 121.5t-62.5 157t-18 184z M379.5 533q-0.5 -95 25 -178.5t76 -144t135.5 -95.5t197 -35t211.5 35t175.5 96t136.5 145t100.5 179t62 200q66 307 -44 483.5t-365 176.5q-110 0 -209.5 -36t-175.5 -98t-137 -146.5t-101.5 -179.5t-63.5 -200q-23 -107 -23.5 -202zM922 1610l45 209h133l-45 -209h-133z M1247 1610l45 209h133l-45 -209h-133z" />
<glyph unicode="&#xd7;" horiz-adv-x="1351" d="M188 86l525 432l-340 432l90 74l342 -430l520 430l61 -74l-522 -432l338 -432l-92 -74l-338 430l-524 -430z" />
<glyph unicode="&#xd8;" horiz-adv-x="1593" d="M84 -6l227 207q-121 202 -53 534q35 164 112 305.5t184.5 247t249.5 165.5t300 60q296 0 438 -178l211 195l64 -72l-222 -205q48 -72 60.5 -200.5t-23.5 -317.5q-34 -161 -108 -300t-180.5 -245.5t-252 -167.5t-311.5 -61q-270 0 -413 162l-217 -199zM397 735 q-54 -254 23 -434l1014 936q-108 158 -351 158q-137 0 -255.5 -54.5t-202.5 -148.5t-141.5 -210t-86.5 -247zM471 219q110 -139 336 -139q139 0 257.5 53t202.5 145.5t140.5 207.5t85.5 249q52 242 -12 412z" />
<glyph unicode="&#xd9;" horiz-adv-x="1478" d="M287 555l194 920h140l-187 -879q-58 -273 18.5 -394.5t303.5 -121.5q233 0 359 124.5t183 391.5l187 879h139l-194 -920q-62 -290 -239 -442t-460 -152q-285 0 -395.5 153.5t-48.5 440.5zM889 1874h160l168 -285h-105z" />
<glyph unicode="&#xda;" horiz-adv-x="1478" d="M287 555l194 920h140l-187 -879q-58 -273 18.5 -394.5t303.5 -121.5q233 0 359 124.5t183 391.5l187 879h139l-194 -920q-62 -290 -239 -442t-460 -152q-285 0 -395.5 153.5t-48.5 440.5zM961 1589l286 285h158l-340 -285h-104z" />
<glyph unicode="&#xdb;" horiz-adv-x="1478" d="M287 555l194 920h140l-187 -879q-58 -273 18.5 -394.5t303.5 -121.5q233 0 359 124.5t183 391.5l187 879h139l-194 -920q-62 -290 -239 -442t-460 -152q-285 0 -395.5 153.5t-48.5 440.5zM786 1589l293 285h138l172 -285h-134l-122 209l-213 -209h-134z" />
<glyph unicode="&#xdc;" horiz-adv-x="1478" d="M287 555l194 920h140l-187 -879q-58 -273 18.5 -394.5t303.5 -121.5q233 0 359 124.5t183 391.5l187 879h139l-194 -920q-62 -290 -239 -442t-460 -152q-285 0 -395.5 153.5t-48.5 440.5zM864 1610l45 209h133l-45 -209h-133zM1190 1610l45 209h133l-45 -209h-133z" />
<glyph unicode="&#xdd;" horiz-adv-x="1251" d="M338 1475h160l282 -711l596 711h162l-711 -832l-137 -643h-139l135 633zM846 1589l287 285h157l-340 -285h-104z" />
<glyph unicode="&#xde;" horiz-adv-x="1251" d="M160 0l313 1475h139l-65 -308h399q93 0 165 -15t118 -43t75 -64.5t39.5 -84t9 -97t-13.5 -107.5q-20 -95 -69 -169t-111.5 -119t-144.5 -73.5t-160.5 -39.5t-165.5 -11h-315l-74 -344h-139zM397 463h320q83 0 146 7.5t122 27.5t100 53.5t71.5 87t45.5 127.5 q31 140 -47 211.5t-272 71.5h-361z" />
<glyph unicode="&#xdf;" horiz-adv-x="1024" d="M106 0l238 1114q82 389 465 389q179 0 265 -102t48 -279q-19 -94 -78 -165t-155 -132q101 -38 138 -140.5t11 -225.5q-51 -236 -191.5 -362t-344.5 -126q-45 0 -74 11l23 108q99 -19 190 10.5t160 109.5t94 198q41 192 -30.5 276t-268.5 84l20 102q323 7 377 254 q26 122 -22 195.5t-178 73.5q-70 0 -123 -15t-86.5 -38.5t-58 -64.5t-38 -81.5t-26.5 -101.5l-232 -1092h-123z" />
<glyph unicode="&#xe0;" d="M154 276q56 271 438 320l174 22q105 9 170 35q48 19 68 111q21 100 -30.5 157.5t-187.5 57.5q-137 0 -227 -54.5t-133 -185.5h-125q35 121 113.5 201.5t177.5 115t219 34.5q84 0 147 -17t110 -56t60.5 -102t-2.5 -155l-122 -578q-15 -74 6 -91t104 9l-20 -96 q-60 -20 -101 -20q-26 0 -53 6q-38 6 -55.5 30t-16.5 56.5t6 70.5q-194 -176 -432 -176q-149 0 -234.5 79.5t-53.5 225.5zM283 272q-19 -91 38 -140.5t152 -49.5q102 0 193.5 31t164.5 103t95 175l35 166q-54 -20 -116 -32.5t-102 -17t-112 -9.5q-304 -22 -348 -226z M633 1460h160l165 -284h-104z" />
<glyph unicode="&#xe1;" d="M154 276q56 271 438 320l174 22q105 9 170 35q48 19 68 111q21 100 -30.5 157.5t-187.5 57.5q-137 0 -227 -54.5t-133 -185.5h-125q35 121 113.5 201.5t177.5 115t219 34.5q84 0 147 -17t110 -56t60.5 -102t-2.5 -155l-122 -578q-15 -74 6 -91t104 9l-20 -96 q-60 -20 -101 -20q-26 0 -53 6q-38 6 -55.5 30t-16.5 56.5t6 70.5q-194 -176 -432 -176q-149 0 -234.5 79.5t-53.5 225.5zM283 272q-19 -91 38 -140.5t152 -49.5q102 0 193.5 31t164.5 103t95 175l35 166q-54 -20 -116 -32.5t-102 -17t-112 -9.5q-304 -22 -348 -226z M702 1176l289 284h158l-342 -284h-105z" />
<glyph unicode="&#xe2;" d="M154 276q56 271 438 320l174 22q105 9 170 35q48 19 68 111q21 100 -30.5 157.5t-187.5 57.5q-137 0 -227 -54.5t-133 -185.5h-125q35 121 113.5 201.5t177.5 115t219 34.5q84 0 147 -17t110 -56t60.5 -102t-2.5 -155l-122 -578q-15 -74 6 -91t104 9l-20 -96 q-60 -20 -101 -20q-26 0 -53 6q-38 6 -55.5 30t-16.5 56.5t6 70.5q-194 -176 -432 -176q-149 0 -234.5 79.5t-53.5 225.5zM283 272q-19 -91 38 -140.5t152 -49.5q102 0 193.5 31t164.5 103t95 175l35 166q-54 -20 -116 -32.5t-102 -17t-112 -9.5q-304 -22 -348 -226z M528 1176l295 284h138l169 -284h-133l-123 208l-212 -208h-134z" />
<glyph unicode="&#xe3;" d="M154 276q56 271 438 320l174 22q105 9 170 35q48 19 68 111q21 100 -30.5 157.5t-187.5 57.5q-137 0 -227 -54.5t-133 -185.5h-125q35 121 113.5 201.5t177.5 115t219 34.5q84 0 147 -17t110 -56t60.5 -102t-2.5 -155l-122 -578q-15 -74 6 -91t104 9l-20 -96 q-60 -20 -101 -20q-26 0 -53 6q-38 6 -55.5 30t-16.5 56.5t6 70.5q-194 -176 -432 -176q-149 0 -234.5 79.5t-53.5 225.5zM283 272q-19 -91 38 -140.5t152 -49.5q102 0 193.5 31t164.5 103t95 175l35 166q-54 -20 -116 -32.5t-102 -17t-112 -9.5q-304 -22 -348 -226z M518 1200q18 62 66 121q41 44 93.5 65t102.5 9q30 -6 112 -47t122 -41q68 0 110 102h78q-7 -24 -33 -78q-80 -123 -178 -123q-59 0 -146 46t-132 46q-41 0 -68.5 -26.5t-52.5 -73.5h-74z" />
<glyph unicode="&#xe4;" d="M154 276q56 271 438 320l174 22q105 9 170 35q48 19 68 111q21 100 -30.5 157.5t-187.5 57.5q-137 0 -227 -54.5t-133 -185.5h-125q35 121 113.5 201.5t177.5 115t219 34.5q84 0 147 -17t110 -56t60.5 -102t-2.5 -155l-122 -578q-15 -74 6 -91t104 9l-20 -96 q-60 -20 -101 -20q-26 0 -53 6q-38 6 -55.5 30t-16.5 56.5t6 70.5q-194 -176 -432 -176q-149 0 -234.5 79.5t-53.5 225.5zM283 272q-19 -91 38 -140.5t152 -49.5q102 0 193.5 31t164.5 103t95 175l35 166q-54 -20 -116 -32.5t-102 -17t-112 -9.5q-304 -22 -348 -226z M606 1196l45 209h133l-45 -209h-133zM932 1196l45 209h133l-45 -209h-133z" />
<glyph unicode="&#xe5;" d="M154 276q56 271 438 320l174 22q105 9 170 35q48 19 68 111q21 100 -30.5 157.5t-187.5 57.5q-137 0 -227 -54.5t-133 -185.5h-125q35 121 113.5 201.5t177.5 115t219 34.5q84 0 147 -17t110 -56t60.5 -102t-2.5 -155l-122 -578q-15 -74 6 -91t104 9l-20 -96 q-60 -20 -101 -20q-26 0 -53 6q-38 6 -55.5 30t-16.5 56.5t6 70.5q-194 -176 -432 -176q-149 0 -234.5 79.5t-53.5 225.5zM283 272q-19 -91 38 -140.5t152 -49.5q102 0 193.5 31t164.5 103t95 175l35 166q-54 -20 -116 -32.5t-102 -17t-112 -9.5q-304 -22 -348 -226z M662 1386q17 82 91 143.5t156 61.5q83 0 130 -61.5t30 -143.5q-19 -83 -91 -142.5t-155 -59.5q-84 0 -132 59.5t-29 142.5zM729 1386q-12 -55 21 -95t88 -40q54 0 102.5 40.5t60.5 94.5q11 55 -20 96.5t-86 41.5t-104.5 -41t-61.5 -97z" />
<glyph unicode="&#xe6;" horiz-adv-x="1820" d="M137 270q30 140 142 227t299 107l118 12q109 12 162.5 27t75 37.5t31.5 67.5q27 133 -19.5 182t-189.5 49q-268 0 -346 -234h-127q32 116 107 195t172 114.5t212 35.5q57 0 107.5 -8t99.5 -26.5t83 -54.5t44 -86q87 98 183 136.5t225 38.5q103 0 176 -30.5t112 -82 t54.5 -128t10 -160.5t-27.5 -187h-799q-15 -70 -15.5 -131.5t15.5 -115t48.5 -91.5t87.5 -60t129 -22q119 0 211 64.5t149 181.5h129q-77 -171 -212 -264t-312 -93q-138 0 -226 57t-135 177q-38 -40 -65.5 -66t-75.5 -61t-95 -56t-115 -36t-144 -15q-151 0 -230.5 76 t-48.5 223zM272 289q-21 -101 27 -154t152 -53q181 0 295.5 91t146.5 245l31 143q-48 -23 -118 -37t-133.5 -19.5t-132.5 -18t-121.5 -31.5t-92.5 -61t-54 -105zM1065 604h668q34 161 -28 268t-216 107q-74 0 -140 -25t-112.5 -64t-83 -89.5t-57.5 -99.5t-31 -97z" />
<glyph unicode="&#xe7;" d="M190 322q-7 96 19 206q23 112 76.5 212.5t130 179t180.5 124.5t219 46q186 0 280.5 -91t82.5 -272h-125q-6 120 -72.5 186t-187.5 66q-91 0 -170 -39t-134 -104.5t-93 -143.5t-56 -164q-21 -84 -14.5 -164t32.5 -142.5t89 -101t155 -38.5q135 0 235 75.5t150 209.5h131 q-72 -181 -206 -286.5t-324 -109.5l-94 -92q54 12 77 12q64 0 101 -32.5t35 -73.5q-3 -70 -44 -119t-99.5 -69.5t-127.5 -20.5q-85 0 -178 39l43 61q88 -30 125 -30q52 0 99 24t57 72q8 39 -17 59.5t-67 20.5q-25 0 -95 -17l-24 27l137 145q-106 10 -179 56.5t-106.5 119.5 t-40.5 169z" />
<glyph unicode="&#xe8;" d="M184.5 348q1.5 83 20.5 178q25 116 80.5 218.5t133 179.5t179.5 121.5t213 44.5q221 0 312.5 -153t29.5 -435h-823q-22 -86 -13 -162.5t39.5 -133.5t93 -90.5t148.5 -33.5q122 0 221.5 64t151.5 180h137q-184 -355 -535 -355q-100 0 -175.5 27.5t-120.5 77.5t-69.5 119.5 t-23 152.5zM352 604h692q34 163 -31.5 269t-224.5 106q-154 0 -267.5 -106t-168.5 -269zM633 1460h160l165 -284h-104z" />
<glyph unicode="&#xe9;" d="M184.5 348q1.5 83 20.5 178q25 116 80.5 218.5t133 179.5t179.5 121.5t213 44.5q221 0 312.5 -153t29.5 -435h-823q-22 -86 -13 -162.5t39.5 -133.5t93 -90.5t148.5 -33.5q122 0 221.5 64t151.5 180h137q-184 -355 -535 -355q-100 0 -175.5 27.5t-120.5 77.5t-69.5 119.5 t-23 152.5zM352 604h692q34 163 -31.5 269t-224.5 106q-154 0 -267.5 -106t-168.5 -269zM702 1176l289 284h158l-342 -284h-105z" />
<glyph unicode="&#xea;" d="M184.5 348q1.5 83 20.5 178q25 116 80.5 218.5t133 179.5t179.5 121.5t213 44.5q221 0 312.5 -153t29.5 -435h-823q-22 -86 -13 -162.5t39.5 -133.5t93 -90.5t148.5 -33.5q122 0 221.5 64t151.5 180h137q-184 -355 -535 -355q-100 0 -175.5 27.5t-120.5 77.5t-69.5 119.5 t-23 152.5zM352 604h692q34 163 -31.5 269t-224.5 106q-154 0 -267.5 -106t-168.5 -269zM528 1176l295 284h138l169 -284h-133l-123 208l-212 -208h-134z" />
<glyph unicode="&#xeb;" d="M184.5 348q1.5 83 20.5 178q25 116 80.5 218.5t133 179.5t179.5 121.5t213 44.5q221 0 312.5 -153t29.5 -435h-823q-22 -86 -13 -162.5t39.5 -133.5t93 -90.5t148.5 -33.5q122 0 221.5 64t151.5 180h137q-184 -355 -535 -355q-100 0 -175.5 27.5t-120.5 77.5t-69.5 119.5 t-23 152.5zM352 604h692q34 163 -31.5 269t-224.5 106q-154 0 -267.5 -106t-168.5 -269zM606 1196l45 209h133l-45 -209h-133zM932 1196l45 209h133l-45 -209h-133z" />
<glyph unicode="&#xec;" horiz-adv-x="454" d="M160 0l225 1061h123l-225 -1061h-123zM291 1460h160l165 -284h-104z" />
<glyph unicode="&#xed;" horiz-adv-x="454" d="M160 0l225 1061h123l-225 -1061h-123zM317 1176l289 284h158l-342 -284h-105z" />
<glyph unicode="&#xee;" horiz-adv-x="454" d="M143 1176l295 284h137l170 -284h-133l-123 208l-213 -208h-133zM160 0l225 1061h123l-225 -1061h-123z" />
<glyph unicode="&#xef;" horiz-adv-x="454" d="M160 0l225 1061h123l-225 -1061h-123zM221 1196l45 209h133l-45 -209h-133zM547 1196l45 209h133l-45 -209h-133z" />
<glyph unicode="&#xf0;" d="M177.5 287q-15.5 104 12.5 243q18 86 52.5 165.5t88 152t120 126t155 85t187.5 31.5q104 0 161 -19t117 -76q-26 201 -121 305l-145 -100l-68 49l156 107q-55 44 -145 90l98 67q87 -41 143 -92l131 92l66 -51l-142 -98q116 -138 151 -349t-21 -485 q-54 -252 -221.5 -405.5t-389.5 -153.5q-103 2 -183.5 37t-133.5 105t-68.5 174zM322 530q-42 -204 25.5 -326t240.5 -122q93 0 172 37.5t134 102t92 142t56 166.5q16 77 17.5 143t-13.5 123t-47.5 97t-88.5 63t-132 23q-93 0 -172.5 -37.5t-134.5 -102t-92.5 -142.5 t-56.5 -167z" />
<glyph unicode="&#xf1;" d="M147 0l226 1061h123l-31 -148q102 88 189.5 132.5t189.5 44.5q221 0 291 -152q16 -36 19 -80t-1.5 -76t-15.5 -88l-148 -694h-123l148 692q31 146 -18.5 216.5t-194.5 70.5q-108 0 -199.5 -59.5t-140.5 -147.5q-43 -74 -70 -201l-121 -571h-123zM518 1200q18 62 66 121 q41 44 93.5 65t102.5 9q30 -6 112 -47t122 -41q68 0 110 102h78q-7 -24 -33 -78q-80 -123 -178 -123q-59 0 -146 46t-132 46q-41 0 -68.5 -26.5t-52.5 -73.5h-74z" />
<glyph unicode="&#xf2;" d="M177.5 287q-15.5 104 12.5 243q25 117 77.5 218t129 177.5t180.5 120.5t224 44q97 0 172.5 -28.5t121.5 -79t72 -121t25.5 -154t-18.5 -177.5q-54 -252 -221.5 -405.5t-389.5 -153.5q-103 2 -183.5 37t-133.5 105t-68.5 174zM322 530q-42 -204 25.5 -326t240.5 -122 q93 0 172 37.5t134 102t92 142t56 166.5q16 77 17.5 143t-13.5 123t-47.5 97t-88.5 63t-132 23q-93 0 -172.5 -37.5t-134.5 -102t-92.5 -142.5t-56.5 -167zM633 1460h160l165 -284h-104z" />
<glyph unicode="&#xf3;" d="M177.5 287q-15.5 104 12.5 243q25 117 77.5 218t129 177.5t180.5 120.5t224 44q97 0 172.5 -28.5t121.5 -79t72 -121t25.5 -154t-18.5 -177.5q-54 -252 -221.5 -405.5t-389.5 -153.5q-103 2 -183.5 37t-133.5 105t-68.5 174zM322 530q-42 -204 25.5 -326t240.5 -122 q93 0 172 37.5t134 102t92 142t56 166.5q16 77 17.5 143t-13.5 123t-47.5 97t-88.5 63t-132 23q-93 0 -172.5 -37.5t-134.5 -102t-92.5 -142.5t-56.5 -167zM702 1176l289 284h158l-342 -284h-105z" />
<glyph unicode="&#xf4;" d="M177.5 287q-15.5 104 12.5 243q25 117 77.5 218t129 177.5t180.5 120.5t224 44q97 0 172.5 -28.5t121.5 -79t72 -121t25.5 -154t-18.5 -177.5q-54 -252 -221.5 -405.5t-389.5 -153.5q-103 2 -183.5 37t-133.5 105t-68.5 174zM322 530q-42 -204 25.5 -326t240.5 -122 q93 0 172 37.5t134 102t92 142t56 166.5q16 77 17.5 143t-13.5 123t-47.5 97t-88.5 63t-132 23q-93 0 -172.5 -37.5t-134.5 -102t-92.5 -142.5t-56.5 -167zM528 1176l295 284h138l169 -284h-133l-123 208l-212 -208h-134z" />
<glyph unicode="&#xf5;" d="M177.5 287q-15.5 104 12.5 243q25 117 77.5 218t129 177.5t180.5 120.5t224 44q97 0 172.5 -28.5t121.5 -79t72 -121t25.5 -154t-18.5 -177.5q-54 -252 -221.5 -405.5t-389.5 -153.5q-103 2 -183.5 37t-133.5 105t-68.5 174zM322 530q-42 -204 25.5 -326t240.5 -122 q93 0 172 37.5t134 102t92 142t56 166.5q16 77 17.5 143t-13.5 123t-47.5 97t-88.5 63t-132 23q-93 0 -172.5 -37.5t-134.5 -102t-92.5 -142.5t-56.5 -167zM518 1200q18 62 66 121q41 44 93.5 65t102.5 9q30 -6 112 -47t122 -41q68 0 110 102h78q-7 -24 -33 -78 q-80 -123 -178 -123q-59 0 -146 46t-132 46q-41 0 -68.5 -26.5t-52.5 -73.5h-74z" />
<glyph unicode="&#xf6;" d="M177.5 287q-15.5 104 12.5 243q25 117 77.5 218t129 177.5t180.5 120.5t224 44q97 0 172.5 -28.5t121.5 -79t72 -121t25.5 -154t-18.5 -177.5q-54 -252 -221.5 -405.5t-389.5 -153.5q-103 2 -183.5 37t-133.5 105t-68.5 174zM322 530q-42 -204 25.5 -326t240.5 -122 q93 0 172 37.5t134 102t92 142t56 166.5q16 77 17.5 143t-13.5 123t-47.5 97t-88.5 63t-132 23q-93 0 -172.5 -37.5t-134.5 -102t-92.5 -142.5t-56.5 -167zM606 1196l45 209h133l-45 -209h-133zM932 1196l45 209h133l-45 -209h-133z" />
<glyph unicode="&#xf7;" horiz-adv-x="1351" d="M260 451l27 122h1024l-27 -122h-1024zM602 0l39 180h150l-39 -180h-150zM782 844l37 180h150l-37 -180h-150z" />
<glyph unicode="&#xf8;" d="M74 12l149 140q-79 143 -28 376q25 118 77.5 218.5t128.5 178t180 121.5t224 44q190 0 293 -109l133 127l57 -64l-139 -133q77 -149 29 -383q-53 -252 -216.5 -404.5t-394.5 -152.5q-105 0 -178.5 32.5t-114.5 80.5l-139 -131zM326 528q-37 -175 4 -274l667 633 q-62 92 -215 92q-93 0 -172.5 -37.5t-134.5 -102.5t-92.5 -143.5t-56.5 -167.5zM369 174q36 -44 96 -68t127 -24q93 0 172 37t134.5 101t92.5 142t56 166q39 178 -5 285z" />
<glyph unicode="&#xf9;" d="M225 362l148 699h123l-148 -696q-30 -140 20.5 -211.5t192.5 -71.5q150 0 260.5 111.5t147.5 289.5l123 578h122l-225 -1061h-123l31 147q-41 -38 -69.5 -60.5t-78 -53.5t-107.5 -46.5t-124 -15.5q-376 0 -293 391zM633 1460h160l165 -284h-104z" />
<glyph unicode="&#xfa;" d="M225 362l148 699h123l-148 -696q-30 -140 20.5 -211.5t192.5 -71.5q150 0 260.5 111.5t147.5 289.5l123 578h122l-225 -1061h-123l31 147q-41 -38 -69.5 -60.5t-78 -53.5t-107.5 -46.5t-124 -15.5q-376 0 -293 391zM702 1176l289 284h158l-342 -284h-105z" />
<glyph unicode="&#xfb;" d="M225 362l148 699h123l-148 -696q-30 -140 20.5 -211.5t192.5 -71.5q150 0 260.5 111.5t147.5 289.5l123 578h122l-225 -1061h-123l31 147q-41 -38 -69.5 -60.5t-78 -53.5t-107.5 -46.5t-124 -15.5q-376 0 -293 391zM528 1176l295 284h138l169 -284h-133l-123 208 l-212 -208h-134z" />
<glyph unicode="&#xfc;" d="M225 362l148 699h123l-148 -696q-30 -140 20.5 -211.5t192.5 -71.5q150 0 260.5 111.5t147.5 289.5l123 578h122l-225 -1061h-123l31 147q-41 -38 -69.5 -60.5t-78 -53.5t-107.5 -46.5t-124 -15.5q-376 0 -293 391zM606 1196l45 209h133l-45 -209h-133zM932 1196l45 209 h133l-45 -209h-133z" />
<glyph unicode="&#xfd;" horiz-adv-x="1024" d="M53 -403l25 114q62 -12 100 -12q39 0 74 20.5t62 57t48 72t45 78.5t39 65l-184 1069h137l148 -911l532 911h133l-618 -1047q-42 -71 -64.5 -109t-57.5 -92t-58 -82t-55.5 -61.5t-60 -49.5t-61 -27t-69.5 -11q-57 0 -115 15zM645 1176l289 284h158l-342 -284h-105z" />
<glyph unicode="&#xfe;" horiz-adv-x="1251" d="M74 -418l401 1893h123l-127 -601h4q72 100 189.5 158t224.5 58q100 0 175 -28t119.5 -78t66.5 -120.5t21 -153t-22 -178.5q-24 -114 -74 -213.5t-123 -178t-175 -124t-220 -45.5q-116 0 -207.5 52.5t-127.5 146.5l-125 -588h-123zM385.5 355.5q9.5 -80.5 41 -141.5 t93 -96.5t142.5 -35.5q123 0 221.5 65.5t158 172.5t82.5 243q40 195 -36.5 305.5t-235.5 110.5q-169 0 -291.5 -127.5t-163.5 -325.5q-21 -90 -11.5 -170.5z" />
<glyph unicode="&#xff;" horiz-adv-x="1024" d="M53 -403l25 114q62 -12 100 -12q39 0 74 20.5t62 57t48 72t45 78.5t39 65l-184 1069h137l148 -911l532 911h133l-618 -1047q-42 -71 -64.5 -109t-57.5 -92t-58 -82t-55.5 -61.5t-60 -49.5t-61 -27t-69.5 -11q-57 0 -115 15zM549 1196l45 209h133l-45 -209h-133zM874 1196 l46 209h133l-45 -209h-134z" />
<glyph unicode="&#x152;" horiz-adv-x="2048" d="M212.5 500q1.5 111 27.5 235q35 165 101.5 303t163 246t231.5 168.5t294 60.5q145 0 239.5 -42.5t137.5 -151.5l33 156h833l-24 -119h-701l-114 -533h655l-25 -118h-655l-125 -586h721l-25 -119h-854l31 147q-105 -88 -209.5 -137t-240.5 -49q-131 0 -229 42t-155 114.5 t-84.5 172t-26 210.5zM353 522.5q-3 -99.5 18.5 -182t67 -140t122 -89t180.5 -31.5q76 0 163.5 30t156.5 80t103 112.5t53 150.5l120 567q38 181 -49.5 278t-281.5 97q-234 0 -395.5 -167.5t-229.5 -488.5q-25 -117 -28 -216.5z" />
<glyph unicode="&#x153;" horiz-adv-x="1933" d="M186 528q25 119 75 219t123 177.5t176.5 121.5t225.5 44q151 0 243 -62t130 -194q186 256 473 256q108 0 182.5 -32.5t112 -86t51.5 -131.5t7.5 -159t-27.5 -179h-805q-15 -48 -18 -102.5t11.5 -111t45.5 -102.5t91 -75t140 -29q116 0 213.5 67.5t145.5 178.5h125 q-73 -171 -208 -264t-304 -93q-144 0 -237.5 71t-127.5 187q-89 -126 -217.5 -192t-271.5 -66q-213 0 -311 151.5t-44 405.5zM299 345.5q8 -77.5 37 -136t90.5 -93t148.5 -34.5q171 0 291.5 128t165.5 341q41 193 -29 310.5t-249 117.5q-165 0 -283 -126t-158 -343 q-22 -87 -14 -164.5zM1176 604h673q19 81 12.5 149.5t-33 118.5t-84 78.5t-140.5 28.5q-152 0 -269.5 -108t-158.5 -267z" />
<glyph unicode="&#x178;" horiz-adv-x="1251" d="M338 1475h160l282 -711l596 711h162l-711 -832l-137 -643h-139l135 633zM750 1610l45 209h133l-45 -209h-133zM1075 1610l45 209h133l-45 -209h-133z" />
<glyph unicode="&#x2c6;" horiz-adv-x="681" d="M299 1176l295 284h137l170 -284h-133l-123 208l-213 -208h-133z" />
<glyph unicode="&#x2dc;" horiz-adv-x="681" d="M289 1200q18 64 65 121q41 44 94 65t103 9q30 -6 112 -47t121 -41q69 0 111 102h78q-7 -24 -33 -78q-80 -123 -178 -123q-59 0 -146.5 46t-132.5 46q-41 0 -68.5 -26.5t-52.5 -73.5h-73z" />
<glyph unicode="&#x2000;" horiz-adv-x="1002" />
<glyph unicode="&#x2001;" horiz-adv-x="2005" />
<glyph unicode="&#x2002;" horiz-adv-x="1002" />
<glyph unicode="&#x2003;" horiz-adv-x="2005" />
<glyph unicode="&#x2004;" horiz-adv-x="668" />
<glyph unicode="&#x2005;" horiz-adv-x="501" />
<glyph unicode="&#x2006;" horiz-adv-x="334" />
<glyph unicode="&#x2007;" horiz-adv-x="334" />
<glyph unicode="&#x2008;" horiz-adv-x="250" />
<glyph unicode="&#x2009;" horiz-adv-x="401" />
<glyph unicode="&#x200a;" horiz-adv-x="111" />
<glyph unicode="&#x2010;" horiz-adv-x="681" d="M182 469l27 127h518l-27 -127h-518z" />
<glyph unicode="&#x2011;" horiz-adv-x="681" d="M182 469l27 127h518l-27 -127h-518z" />
<glyph unicode="&#x2012;" horiz-adv-x="681" d="M182 469l27 127h518l-27 -127h-518z" />
<glyph unicode="&#x2013;" horiz-adv-x="1024" d="M104 487l19 91h1024l-19 -91h-1024z" />
<glyph unicode="&#x2014;" horiz-adv-x="2048" d="M104 487l19 91h2048l-19 -91h-2048z" />
<glyph unicode="&#x2018;" horiz-adv-x="454" d="M356 1014l52 241q20 86 72 142.5t124 77.5l-16 -76q-79 -43 -99 -135l-14 -70h70l-39 -180h-150z" />
<glyph unicode="&#x2019;" horiz-adv-x="454" d="M379 1014l16 76q81 44 99 135l14 69h-70l39 181h150l-52 -242q-18 -86 -70.5 -142t-125.5 -77z" />
<glyph unicode="&#x201a;" horiz-adv-x="454" d="M104 -281l17 76q78 42 98 135l14 70h-69l39 180h149l-51 -241q-20 -86 -72.5 -142.5t-124.5 -77.5z" />
<glyph unicode="&#x201c;" horiz-adv-x="796" d="M391 1014l51 241q20 86 72.5 142.5t124.5 77.5l-16 -76q-79 -43 -99 -135l-14 -70h70l-39 -180h-150zM700 1014l52 241q20 86 72 142.5t124 77.5l-16 -76q-78 -42 -98 -135l-15 -70h70l-39 -180h-150z" />
<glyph unicode="&#x201d;" horiz-adv-x="796" d="M377 1014l16 76q81 44 99 135l14 69h-70l39 181h150l-52 -242q-18 -86 -70.5 -142t-125.5 -77zM686 1014l16 76q81 44 99 135l14 69h-70l39 181h150l-51 -242q-18 -86 -71 -142t-126 -77z" />
<glyph unicode="&#x201e;" horiz-adv-x="796" d="M102 -281l17 76q78 42 98 135l14 70h-69l39 180h149l-51 -241q-20 -86 -72.5 -142.5t-124.5 -77.5zM412 -281l16 76q78 42 98 135l15 70h-70l39 180h149l-51 -241q-20 -86 -72 -142.5t-124 -77.5z" />
<glyph unicode="&#x2022;" horiz-adv-x="1024" d="M299 735q34 154 164.5 262.5t281.5 108.5q154 0 239.5 -108.5t51.5 -262.5q-32 -151 -163.5 -258.5t-284.5 -107.5q-151 0 -236 107.5t-53 258.5z" />
<glyph unicode="&#x2026;" horiz-adv-x="2048" d="M268 0l39 180h150l-39 -180h-150zM950 0l39 180h150l-39 -180h-150zM1632 0l39 180h150l-39 -180h-150z" />
<glyph unicode="&#x202f;" horiz-adv-x="401" />
<glyph unicode="&#x2039;" horiz-adv-x="796" d="M346 467l29 129l348 231l-29 -129l-248 -168l179 -163l-27 -127z" />
<glyph unicode="&#x203a;" horiz-adv-x="796" d="M301 240l27 129l250 168l-179 163l27 127l250 -227l-27 -129z" />
<glyph unicode="&#x205f;" horiz-adv-x="501" />
<glyph unicode="&#x20ac;" d="M141 483l66 111h125q6 53 18 113q4 14 10.5 43t10.5 45h-160l63 110h132q49 148 118.5 255.5t149.5 168t162 88t170 27.5q290 0 346 -238l-90 -155q-4 145 -80.5 213.5t-200.5 68.5q-154 0 -264.5 -114.5t-179.5 -313.5h637l-66 -110h-606q-3 -15 -9.5 -43t-9.5 -43 q-16 -78 -20 -115h530l-65 -111h-477q-20 -401 266 -401q202 0 389 223l-37 -172q-74 -74 -174 -118t-203 -44q-68 0 -125.5 16t-108 53.5t-83.5 95t-49 146t-9 201.5h-176z" />
<glyph unicode="&#x2122;" horiz-adv-x="1925" d="M356 1393l17 82h655l-16 -82h-275l-166 -781h-106l166 781h-275zM1006 612l182 863h196l111 -637h4l377 637h197l-183 -863h-106l164 772h-4l-461 -772h-70l-133 772h-4l-164 -772h-106z" />
<glyph unicode="&#xe000;" horiz-adv-x="1064" d="M0 0v1065h1065v-1065h-1065z" />
<glyph unicode="&#xfb01;" horiz-adv-x="1024" d="M188 0l203 958h-162l23 103h162l37 168q57 274 282 274q60 0 101 -8l-25 -113q-42 11 -70 11q-45 0 -77 -16.5t-51 -50t-28 -61t-18 -73.5l-28 -131h200l-22 -103h-201l-203 -958h-123zM762 0l225 1061h123l-225 -1061h-123zM1030 1292l39 183h135l-39 -183h-135z" />
<glyph unicode="&#xfb02;" horiz-adv-x="1024" d="M188 0l203 958h-162l23 103h162l37 168q57 274 282 274q60 0 101 -8l-25 -113q-42 11 -70 11q-45 0 -77 -16.5t-51 -50t-28 -61t-18 -73.5l-28 -131h200l-22 -103h-201l-203 -958h-123zM762 0l313 1475h123l-313 -1475h-123z" />
</font>
</defs>
</svg>
